<svg version="1.1" xmlns="http://www.w3.org/2000/svg" xmlns:xlink="http://www.w3.org/1999/xlink" width="711" height="636"><defs/><g><text fill="#eeeeee" stroke="none" font-family="Arial" font-size="24px" font-style="normal" font-weight="normal" text-decoration="none" x="0" y="0"></text><text fill="#eeeeee" stroke="none" font-family="Arial" font-size="24px" font-style="normal" font-weight="normal" text-decoration="none" x="0" y="30"></text><text fill="#eeeeee" stroke="none" font-family="Arial" font-size="24px" font-style="normal" font-weight="normal" text-decoration="none" x="0" y="60"></text><text fill="#eeeeee" stroke="none" font-family="Arial" font-size="24px" font-style="normal" font-weight="normal" text-decoration="none" x="0" y="90"></text><text fill="#eeeeee" stroke="none" font-family="Arial" font-size="24px" font-style="normal" font-weight="normal" text-decoration="none" x="0" y="120"></text><text fill="#eeeeee" stroke="none" font-family="Arial" font-size="24px" font-style="normal" font-weight="normal" text-decoration="none" x="0" y="150"></text><text fill="#eeeeee" stroke="none" font-family="Arial" font-size="24px" font-style="normal" font-weight="normal" text-decoration="none" x="0" y="180"></text><text fill="#eeeeee" stroke="none" font-family="Arial" font-size="24px" font-style="normal" font-weight="normal" text-decoration="none" x="0" y="210"></text><text fill="#eeeeee" stroke="none" font-family="Arial" font-size="24px" font-style="normal" font-weight="normal" text-decoration="none" x="0" y="240"></text><text fill="#eeeeee" stroke="none" font-family="Arial" font-size="24px" font-style="normal" font-weight="normal" text-decoration="none" x="0" y="270"></text><text fill="#eeeeee" stroke="none" font-family="Arial" font-size="24px" font-style="normal" font-weight="normal" text-decoration="none" x="0" y="300"></text><text fill="#eeeeee" stroke="none" font-family="Arial" font-size="24px" font-style="normal" font-weight="normal" text-decoration="none" x="0" y="330"></text><text fill="#eeeeee" stroke="none" font-family="Arial" font-size="24px" font-style="normal" font-weight="normal" text-decoration="none" x="0" y="360"></text><text fill="#eeeeee" stroke="none" font-family="Arial" font-size="24px" font-style="normal" font-weight="normal" text-decoration="none" x="0" y="390"></text><text fill="#eeeeee" stroke="none" font-family="Arial" font-size="24px" font-style="normal" font-weight="normal" text-decoration="none" x="0" y="420"></text><text fill="#eeeeee" stroke="none" font-family="Arial" font-size="24px" font-style="normal" font-weight="normal" text-decoration="none" x="0" y="450"></text><text fill="#eeeeee" stroke="none" font-family="Arial" font-size="24px" font-style="normal" font-weight="normal" text-decoration="none" x="0" y="480"></text><text fill="#eeeeee" stroke="none" font-family="Arial" font-size="24px" font-style="normal" font-weight="normal" text-decoration="none" x="0" y="510"></text><text fill="#eeeeee" stroke="none" font-family="Arial" font-size="24px" font-style="normal" font-weight="normal" text-decoration="none" x="0" y="540"></text><text fill="#eeeeee" stroke="none" font-family="Arial" font-size="24px" font-style="normal" font-weight="normal" text-decoration="none" x="0" y="570"></text><text fill="#eeeeee" stroke="none" font-family="Arial" font-size="24px" font-style="normal" font-weight="normal" text-decoration="none" x="0" y="600"></text><text fill="#eeeeee" stroke="none" font-family="Arial" font-size="24px" font-style="normal" font-weight="normal" text-decoration="none" x="0" y="630"></text><text fill="#eeeeee" stroke="none" font-family="Arial" font-size="24px" font-style="normal" font-weight="normal" text-decoration="none" x="200" y="0"></text><text fill="#eeeeee" stroke="none" font-family="Arial" font-size="24px" font-style="normal" font-weight="normal" text-decoration="none" x="200" y="30"></text><text fill="#eeeeee" stroke="none" font-family="Arial" font-size="24px" font-style="normal" font-weight="normal" text-decoration="none" x="200" y="60"></text><text fill="#eeeeee" stroke="none" font-family="Arial" font-size="24px" font-style="normal" font-weight="normal" text-decoration="none" x="200" y="90"></text><text fill="#eeeeee" stroke="none" font-family="Arial" font-size="24px" font-style="normal" font-weight="normal" text-decoration="none" x="200" y="120"></text><text fill="#eeeeee" stroke="none" font-family="Arial" font-size="24px" font-style="normal" font-weight="normal" text-decoration="none" x="200" y="150"></text><text fill="#eeeeee" stroke="none" font-family="Arial" font-size="24px" font-style="normal" font-weight="normal" text-decoration="none" x="200" y="180"></text><text fill="#eeeeee" stroke="none" font-family="Arial" font-size="24px" font-style="normal" font-weight="normal" text-decoration="none" x="200" y="210"></text><text fill="#eeeeee" stroke="none" font-family="Arial" font-size="24px" font-style="normal" font-weight="normal" text-decoration="none" x="200" y="240"></text><text fill="#eeeeee" stroke="none" font-family="Arial" font-size="24px" font-style="normal" font-weight="normal" text-decoration="none" x="200" y="270"></text><text fill="#eeeeee" stroke="none" font-family="Arial" font-size="24px" font-style="normal" font-weight="normal" text-decoration="none" x="200" y="300"></text><text fill="#eeeeee" stroke="none" font-family="Arial" font-size="24px" font-style="normal" font-weight="normal" text-decoration="none" x="200" y="330"></text><text fill="#eeeeee" stroke="none" font-family="Arial" font-size="24px" font-style="normal" font-weight="normal" text-decoration="none" x="200" y="360"></text><text fill="#eeeeee" stroke="none" font-family="Arial" font-size="24px" font-style="normal" font-weight="normal" text-decoration="none" x="200" y="390"></text><text fill="#eeeeee" stroke="none" font-family="Arial" font-size="24px" font-style="normal" font-weight="normal" text-decoration="none" x="200" y="420"></text><text fill="#eeeeee" stroke="none" font-family="Arial" font-size="24px" font-style="normal" font-weight="normal" text-decoration="none" x="200" y="450"></text><text fill="#eeeeee" stroke="none" font-family="Arial" font-size="24px" font-style="normal" font-weight="normal" text-decoration="none" x="200" y="480"></text><text fill="#eeeeee" stroke="none" font-family="Arial" font-size="24px" font-style="normal" font-weight="normal" text-decoration="none" x="200" y="510"></text><text fill="#eeeeee" stroke="none" font-family="Arial" font-size="24px" font-style="normal" font-weight="normal" text-decoration="none" x="200" y="540"></text><text fill="#eeeeee" stroke="none" font-family="Arial" font-size="24px" font-style="normal" font-weight="normal" text-decoration="none" x="200" y="570"></text><text fill="#eeeeee" stroke="none" font-family="Arial" font-size="24px" font-style="normal" font-weight="normal" text-decoration="none" x="200" y="600"></text><text fill="#eeeeee" stroke="none" font-family="Arial" font-size="24px" font-style="normal" font-weight="normal" text-decoration="none" x="200" y="630"></text><text fill="#eeeeee" stroke="none" font-family="Arial" font-size="24px" font-style="normal" font-weight="normal" text-decoration="none" x="400" y="0"></text><text fill="#eeeeee" stroke="none" font-family="Arial" font-size="24px" font-style="normal" font-weight="normal" text-decoration="none" x="400" y="30"></text><text fill="#eeeeee" stroke="none" font-family="Arial" font-size="24px" font-style="normal" font-weight="normal" text-decoration="none" x="400" y="60"></text><text fill="#eeeeee" stroke="none" font-family="Arial" font-size="24px" font-style="normal" font-weight="normal" text-decoration="none" x="400" y="90"></text><text fill="#eeeeee" stroke="none" font-family="Arial" font-size="24px" font-style="normal" font-weight="normal" text-decoration="none" x="400" y="120"></text><text fill="#eeeeee" stroke="none" font-family="Arial" font-size="24px" font-style="normal" font-weight="normal" text-decoration="none" x="400" y="150"></text><text fill="#eeeeee" stroke="none" font-family="Arial" font-size="24px" font-style="normal" font-weight="normal" text-decoration="none" x="400" y="180"></text><text fill="#eeeeee" stroke="none" font-family="Arial" font-size="24px" font-style="normal" font-weight="normal" text-decoration="none" x="400" y="210"></text><text fill="#eeeeee" stroke="none" font-family="Arial" font-size="24px" font-style="normal" font-weight="normal" text-decoration="none" x="400" y="240"></text><text fill="#eeeeee" stroke="none" font-family="Arial" font-size="24px" font-style="normal" font-weight="normal" text-decoration="none" x="400" y="270"></text><text fill="#eeeeee" stroke="none" font-family="Arial" font-size="24px" font-style="normal" font-weight="normal" text-decoration="none" x="400" y="300"></text><text fill="#eeeeee" stroke="none" font-family="Arial" font-size="24px" font-style="normal" font-weight="normal" text-decoration="none" x="400" y="330"></text><text fill="#eeeeee" stroke="none" font-family="Arial" font-size="24px" font-style="normal" font-weight="normal" text-decoration="none" x="400" y="360"></text><text fill="#eeeeee" stroke="none" font-family="Arial" font-size="24px" font-style="normal" font-weight="normal" text-decoration="none" x="400" y="390"></text><text fill="#eeeeee" stroke="none" font-family="Arial" font-size="24px" font-style="normal" font-weight="normal" text-decoration="none" x="400" y="420"></text><text fill="#eeeeee" stroke="none" font-family="Arial" font-size="24px" font-style="normal" font-weight="normal" text-decoration="none" x="400" y="450"></text><text fill="#eeeeee" stroke="none" font-family="Arial" font-size="24px" font-style="normal" font-weight="normal" text-decoration="none" x="400" y="480"></text><text fill="#eeeeee" stroke="none" font-family="Arial" font-size="24px" font-style="normal" font-weight="normal" text-decoration="none" x="400" y="510"></text><text fill="#eeeeee" stroke="none" font-family="Arial" font-size="24px" font-style="normal" font-weight="normal" text-decoration="none" x="400" y="540"></text><text fill="#eeeeee" stroke="none" font-family="Arial" font-size="24px" font-style="normal" font-weight="normal" text-decoration="none" x="400" y="570"></text><text fill="#eeeeee" stroke="none" font-family="Arial" font-size="24px" font-style="normal" font-weight="normal" text-decoration="none" x="400" y="600"></text><text fill="#eeeeee" stroke="none" font-family="Arial" font-size="24px" font-style="normal" font-weight="normal" text-decoration="none" x="400" y="630"></text><text fill="#eeeeee" stroke="none" font-family="Arial" font-size="24px" font-style="normal" font-weight="normal" text-decoration="none" x="600" y="0"></text><text fill="#eeeeee" stroke="none" font-family="Arial" font-size="24px" font-style="normal" font-weight="normal" text-decoration="none" x="600" y="30"></text><text fill="#eeeeee" stroke="none" font-family="Arial" font-size="24px" font-style="normal" font-weight="normal" text-decoration="none" x="600" y="60"></text><text fill="#eeeeee" stroke="none" font-family="Arial" font-size="24px" font-style="normal" font-weight="normal" text-decoration="none" x="600" y="90"></text><text fill="#eeeeee" stroke="none" font-family="Arial" font-size="24px" font-style="normal" font-weight="normal" text-decoration="none" x="600" y="120"></text><text fill="#eeeeee" stroke="none" font-family="Arial" font-size="24px" font-style="normal" font-weight="normal" text-decoration="none" x="600" y="150"></text><text fill="#eeeeee" stroke="none" font-family="Arial" font-size="24px" font-style="normal" font-weight="normal" text-decoration="none" x="600" y="180"></text><text fill="#eeeeee" stroke="none" font-family="Arial" font-size="24px" font-style="normal" font-weight="normal" text-decoration="none" x="600" y="210"></text><text fill="#eeeeee" stroke="none" font-family="Arial" font-size="24px" font-style="normal" font-weight="normal" text-decoration="none" x="600" y="240"></text><text fill="#eeeeee" stroke="none" font-family="Arial" font-size="24px" font-style="normal" font-weight="normal" text-decoration="none" x="600" y="270"></text><text fill="#eeeeee" stroke="none" font-family="Arial" font-size="24px" font-style="normal" font-weight="normal" text-decoration="none" x="600" y="300"></text><text fill="#eeeeee" stroke="none" font-family="Arial" font-size="24px" font-style="normal" font-weight="normal" text-decoration="none" x="600" y="330"></text><text fill="#eeeeee" stroke="none" font-family="Arial" font-size="24px" font-style="normal" font-weight="normal" text-decoration="none" x="600" y="360"></text><text fill="#eeeeee" stroke="none" font-family="Arial" font-size="24px" font-style="normal" font-weight="normal" text-decoration="none" x="600" y="390"></text><text fill="#eeeeee" stroke="none" font-family="Arial" font-size="24px" font-style="normal" font-weight="normal" text-decoration="none" x="600" y="420"></text><text fill="#eeeeee" stroke="none" font-family="Arial" font-size="24px" font-style="normal" font-weight="normal" text-decoration="none" x="600" y="450"></text><text fill="#eeeeee" stroke="none" font-family="Arial" font-size="24px" font-style="normal" font-weight="normal" text-decoration="none" x="600" y="480"></text><text fill="#eeeeee" stroke="none" font-family="Arial" font-size="24px" font-style="normal" font-weight="normal" text-decoration="none" x="600" y="510"></text><text fill="#eeeeee" stroke="none" font-family="Arial" font-size="24px" font-style="normal" font-weight="normal" text-decoration="none" x="600" y="540"></text><text fill="#eeeeee" stroke="none" font-family="Arial" font-size="24px" font-style="normal" font-weight="normal" text-decoration="none" x="600" y="570"></text><text fill="#eeeeee" stroke="none" font-family="Arial" font-size="24px" font-style="normal" font-weight="normal" text-decoration="none" x="600" y="600"></text><text fill="#eeeeee" stroke="none" font-family="Arial" font-size="24px" font-style="normal" font-weight="normal" text-decoration="none" x="600" y="630"></text><g transform="translate(10,10) scale(1,1)"><path fill="none" stroke="#000000" d="M 0 0 L 691 0 L 691 616 L 0 616 L 0 0" stroke-miterlimit="10"/></g><g transform="translate(10,10) scale(1,1)"><path fill="#ffffff" stroke="none" d="M 0 0 L 0 22 L 144.63525390625 22 L 155.63525390625 11 L 155.63525390625 0 L 0 0"/></g><g transform="translate(10,10) scale(1,1)"><path fill="none" stroke="#000000" d="M 0 0 L 0 22 L 144.63525390625 22 L 155.63525390625 11 L 155.63525390625 0 L 0 0 L 0 0" stroke-miterlimit="10"/></g><g transform="translate(10,10) scale(1,1)"><g><path fill="none" stroke="none"/><text fill="#000000" stroke="none" font-family="Arial" font-size="13px" font-style="normal" font-weight="normal" text-decoration="none" x="24.72998046875" y="16">SequenceDiagram1</text></g></g><g transform="translate(10,10) scale(1,1)"><g><path fill="none" stroke="none"/><text fill="#000000" stroke="none" font-family="Arial" font-size="13px" font-style="normal" font-weight="bold" text-decoration="none" x="4.279541015625" y="16">sd</text></g></g><g transform="translate(10,10) scale(1,1)"><rect fill="#C0C0C0" stroke="none" x="87" y="47" width="71.736328125" height="39" opacity="0.2"/></g><g transform="translate(10,10) scale(1,1)"><rect fill="#ffffff" stroke="none" x="80" y="40" width="71.736328125" height="39"/></g><g transform="translate(10,10) scale(1,1)"><path fill="none" stroke="#000000" d="M 80 40 L 151.736328125 40 L 151.736328125 79 L 80 79 L 80 40 Z Z" stroke-miterlimit="10"/></g><g transform="translate(10,10) scale(1,1)"><g><path fill="none" stroke="none"/><text fill="#000000" stroke="none" font-family="Arial" font-size="13px" font-style="normal" font-weight="bold" text-decoration="none" x="98.174072265625" y="58.5">객체A</text></g></g><g transform="translate(10,10) scale(1,1)"><path fill="none" stroke="#000000" d="M 116.5 80 L 116.5 586" stroke-miterlimit="10" stroke-dasharray="3"/></g><g transform="translate(10,10) scale(1,1)"><rect fill="#C0C0C0" stroke="none" x="303" y="47" width="71.736328125" height="39" opacity="0.2"/></g><g transform="translate(10,10) scale(1,1)"><rect fill="#ffffff" stroke="none" x="296" y="40" width="71.736328125" height="39"/></g><g transform="translate(10,10) scale(1,1)"><path fill="none" stroke="#000000" d="M 296 40 L 367.736328125 40 L 367.736328125 79 L 296 79 L 296 40 Z Z" stroke-miterlimit="10"/></g><g transform="translate(10,10) scale(1,1)"><g><path fill="none" stroke="none"/><text fill="#000000" stroke="none" font-family="Arial" font-size="13px" font-style="normal" font-weight="bold" text-decoration="none" x="314.174072265625" y="58.5">객체B</text></g></g><g transform="translate(10,10) scale(1,1)"><path fill="none" stroke="#000000" d="M 332.5 80 L 332.5 586" stroke-miterlimit="10" stroke-dasharray="3"/></g><g transform="translate(10,10) scale(1,1)"><g><path fill="none" stroke="none"/><text fill="#000000" stroke="none" font-family="Arial" font-size="13px" font-style="normal" font-weight="normal" text-decoration="none" x="85" y="144">생명선</text></g></g><g transform="translate(10,10) scale(1,1)"><rect fill="#C0C0C0" stroke="none" x="527" y="47" width="71.736328125" height="39" opacity="0.2"/></g><g transform="translate(10,10) scale(1,1)"><rect fill="#ffffff" stroke="none" x="520" y="40" width="71.736328125" height="39"/></g><g transform="translate(10,10) scale(1,1)"><path fill="none" stroke="#000000" d="M 520 40 L 591.736328125 40 L 591.736328125 79 L 520 79 L 520 40 Z Z" stroke-miterlimit="10"/></g><g transform="translate(10,10) scale(1,1)"><g><path fill="none" stroke="none"/><text fill="#000000" stroke="none" font-family="Arial" font-size="13px" font-style="normal" font-weight="bold" text-decoration="none" x="538.174072265625" y="58.5">객체C</text></g></g><g transform="translate(10,10) scale(1,1)"><path fill="none" stroke="#000000" d="M 556.5 80 L 556.5 528" stroke-miterlimit="10" stroke-dasharray="3"/></g><g transform="translate(10,10) scale(1,1)"><g><path fill="none" stroke="none"/><text fill="#000000" stroke="none" font-family="Arial" font-size="13px" font-style="normal" font-weight="normal" text-decoration="none" x="29" y="208">시</text></g></g><g transform="translate(10,10) scale(1,1)"><g><path fill="none" stroke="none"/><text fill="#000000" stroke="none" font-family="Arial" font-size="13px" font-style="normal" font-weight="normal" text-decoration="none" x="29" y="223">간</text></g></g><g transform="translate(10,10) scale(1,1)"><g><path fill="none" stroke="none"/><text fill="#000000" stroke="none" font-family="Arial" font-size="13px" font-style="normal" font-weight="normal" text-decoration="none" x="29" y="238">흐</text></g></g><g transform="translate(10,10) scale(1,1)"><g><path fill="none" stroke="none"/><text fill="#000000" stroke="none" font-family="Arial" font-size="13px" font-style="normal" font-weight="normal" text-decoration="none" x="29" y="253">름</text></g></g><g transform="translate(10,10) scale(1,1)"><path fill="none" stroke="#000000" d="M 116 123 L 325 123" stroke-miterlimit="10"/></g><g transform="translate(10,10) scale(1,1)"><path fill="#000000" stroke="none" d="M 314.83732514237585 127.20951775601598 L 325 123 L 314.83732514237585 118.79048224398402"/></g><g transform="translate(10,10) scale(1,1)"><path fill="none" stroke="#000000" d="M 314.83732514237585 127.20951775601598 L 325 123 L 314.83732514237585 118.79048224398402 L 314.83732514237585 127.20951775601598" stroke-miterlimit="10"/></g><g transform="translate(10,10) scale(1,1)"><g><path fill="none" stroke="none"/><text fill="#000000" stroke="none" font-family="Arial" font-size="13px" font-style="normal" font-weight="normal" text-decoration="none" x="182.68359375" y="118.5">1 : 요청 정보</text></g></g><g transform="translate(10,10) scale(1,1)"><rect fill="#ffffff" stroke="none" x="325" y="123" width="13" height="405"/></g><g transform="translate(10,10) scale(1,1)"><path fill="none" stroke="#000000" d="M 325 123 L 338 123 L 338 528 L 325 528 L 325 123 Z Z" stroke-miterlimit="10"/></g><g transform="translate(10,10) scale(1,1)"><path fill="none" stroke="#000000" d="M 338 152 L 549 152" stroke-miterlimit="10"/></g><g transform="translate(10,10) scale(1,1)"><path fill="#000000" stroke="none" d="M 538.8373251423759 156.209517756016 L 549 152 L 538.8373251423758 147.790482243984"/></g><g transform="translate(10,10) scale(1,1)"><path fill="none" stroke="#000000" d="M 538.8373251423759 156.209517756016 L 549 152 L 538.8373251423758 147.790482243984 L 538.8373251423759 156.209517756016" stroke-miterlimit="10"/></g><g transform="translate(10,10) scale(1,1)"><g><path fill="none" stroke="none"/><text fill="#000000" stroke="none" font-family="Arial" font-size="13px" font-style="normal" font-weight="normal" text-decoration="none" x="420.489501953125" y="147.5">2 : 호출</text></g></g><g transform="translate(10,10) scale(1,1)"><rect fill="#ffffff" stroke="none" x="549" y="152" width="13" height="96"/></g><g transform="translate(10,10) scale(1,1)"><path fill="none" stroke="#000000" d="M 549 152 L 562 152 L 562 248 L 549 248 L 549 152 Z Z" stroke-miterlimit="10"/></g><g transform="translate(10,10) scale(1,1)"><path fill="none" stroke="#000000" d="M 556 248 L 338 248" stroke-miterlimit="10" stroke-dasharray="3"/></g><g transform="translate(10,10) scale(1,1)"><path fill="none" stroke="#000000" d="M 348.16267485762415 243.790482243984 L 338 248 L 348.16267485762415 252.209517756016" stroke-miterlimit="10"/></g><g transform="translate(10,10) scale(1,1)"><g><path fill="none" stroke="none"/><text fill="#000000" stroke="none" font-family="Arial" font-size="13px" font-style="normal" font-weight="normal" text-decoration="none" x="415.5" y="263.5">3 : 반환 값</text></g></g><g transform="translate(10,10) scale(1,1)"><path fill="none" stroke="#000000" d="M 338 320 L 549 320" stroke-miterlimit="10"/></g><g transform="translate(10,10) scale(1,1)"><path fill="#000000" stroke="none" d="M 538.8373251423759 324.209517756016 L 549 320 L 538.8373251423758 315.790482243984"/></g><g transform="translate(10,10) scale(1,1)"><path fill="none" stroke="#000000" d="M 538.8373251423759 324.209517756016 L 549 320 L 538.8373251423758 315.790482243984 L 538.8373251423759 324.209517756016" stroke-miterlimit="10"/></g><g transform="translate(10,10) scale(1,1)"><g><path fill="none" stroke="none"/><text fill="#000000" stroke="none" font-family="Arial" font-size="13px" font-style="normal" font-weight="normal" text-decoration="none" x="430.5" y="315">4 : Message1</text></g></g><g transform="translate(10,10) scale(1,1)"><rect fill="#ffffff" stroke="none" x="549" y="320" width="13" height="32"/></g><g transform="translate(10,10) scale(1,1)"><path fill="none" stroke="#000000" d="M 549 320 L 562 320 L 562 352 L 549 352 L 549 320 Z Z" stroke-miterlimit="10"/></g><g transform="translate(10,10) scale(1,1)"><path fill="none" stroke="#000000" d="M 549 344 L 338 344" stroke-miterlimit="10" stroke-dasharray="3"/></g><g transform="translate(10,10) scale(1,1)"><path fill="none" stroke="#000000" d="M 348.16267485762415 339.790482243984 L 338 344 L 348.16267485762415 348.209517756016" stroke-miterlimit="10"/></g><g transform="translate(10,10) scale(1,1)"><g><path fill="none" stroke="none"/><text fill="#000000" stroke="none" font-family="Arial" font-size="13px" font-style="normal" font-weight="normal" text-decoration="none" x="432.5" y="359">5 : </text></g></g><g transform="translate(10,10) scale(1,1)"><path fill="none" stroke="#000000" d="M 325 360 L 116 360" stroke-miterlimit="10" stroke-dasharray="3"/></g><g transform="translate(10,10) scale(1,1)"><path fill="none" stroke="#000000" d="M 126.16267485762415 355.790482243984 L 116 360 L 126.16267485762415 364.209517756016" stroke-miterlimit="10"/></g><g transform="translate(10,10) scale(1,1)"><g><path fill="none" stroke="none"/><text fill="#000000" stroke="none" font-family="Arial" font-size="13px" font-style="normal" font-weight="normal" text-decoration="none" x="209.5" y="375">6 : </text></g></g><g transform="translate(10,10) scale(1,1)"><path fill="none" stroke="#000000" d="M 338 392 L 549 392" stroke-miterlimit="10"/></g><g transform="translate(10,10) scale(1,1)"><path fill="#000000" stroke="none" d="M 538.8373251423759 396.209517756016 L 549 392 L 538.8373251423758 387.790482243984"/></g><g transform="translate(10,10) scale(1,1)"><path fill="none" stroke="#000000" d="M 538.8373251423759 396.209517756016 L 549 392 L 538.8373251423758 387.790482243984 L 538.8373251423759 396.209517756016" stroke-miterlimit="10"/></g><g transform="translate(10,10) scale(1,1)"><g><path fill="none" stroke="none"/><text fill="#000000" stroke="none" font-family="Arial" font-size="13px" font-style="normal" font-weight="normal" text-decoration="none" x="430.5" y="387">7 : Message2</text></g></g><g transform="translate(10,10) scale(1,1)"><rect fill="#ffffff" stroke="none" x="549" y="392" width="13" height="28"/></g><g transform="translate(10,10) scale(1,1)"><path fill="none" stroke="#000000" d="M 549 392 L 562 392 L 562 420 L 549 420 L 549 392 Z Z" stroke-miterlimit="10"/></g><g transform="translate(10,10) scale(1,1)"><path fill="none" stroke="#000000" d="M 549 416 L 338 416" stroke-miterlimit="10" stroke-dasharray="3"/></g><g transform="translate(10,10) scale(1,1)"><path fill="none" stroke="#000000" d="M 348.16267485762415 411.790482243984 L 338 416 L 348.16267485762415 420.209517756016" stroke-miterlimit="10"/></g><g transform="translate(10,10) scale(1,1)"><g><path fill="none" stroke="none"/><text fill="#000000" stroke="none" font-family="Arial" font-size="13px" font-style="normal" font-weight="normal" text-decoration="none" x="432.5" y="431">8 : </text></g></g><g transform="translate(10,10) scale(1,1)"><path fill="none" stroke="#000000" d="M 325 432 L 116 432" stroke-miterlimit="10" stroke-dasharray="3"/></g><g transform="translate(10,10) scale(1,1)"><path fill="none" stroke="#000000" d="M 126.16267485762415 427.790482243984 L 116 432 L 126.16267485762415 436.209517756016" stroke-miterlimit="10"/></g><g transform="translate(10,10) scale(1,1)"><g><path fill="none" stroke="none"/><text fill="#000000" stroke="none" font-family="Arial" font-size="13px" font-style="normal" font-weight="normal" text-decoration="none" x="209.5" y="447">9 : </text></g></g><g transform="translate(10,10) scale(1,1)"><path fill="none" stroke="#000000" d="M 338 472 L 549 472" stroke-miterlimit="10"/></g><g transform="translate(10,10) scale(1,1)"><path fill="#000000" stroke="none" d="M 538.8373251423759 476.209517756016 L 549 472 L 538.8373251423758 467.790482243984"/></g><g transform="translate(10,10) scale(1,1)"><path fill="none" stroke="#000000" d="M 538.8373251423759 476.209517756016 L 549 472 L 538.8373251423758 467.790482243984 L 538.8373251423759 476.209517756016" stroke-miterlimit="10"/></g><g transform="translate(10,10) scale(1,1)"><g><path fill="none" stroke="none"/><text fill="#000000" stroke="none" font-family="Arial" font-size="13px" font-style="normal" font-weight="normal" text-decoration="none" x="427.5" y="467">10 : Message3</text></g></g><g transform="translate(10,10) scale(1,1)"><rect fill="#ffffff" stroke="none" x="549" y="472" width="13" height="28"/></g><g transform="translate(10,10) scale(1,1)"><path fill="none" stroke="#000000" d="M 549 472 L 562 472 L 562 500 L 549 500 L 549 472 Z Z" stroke-miterlimit="10"/></g><g transform="translate(10,10) scale(1,1)"><path fill="none" stroke="#000000" d="M 549 496 L 338 496" stroke-miterlimit="10" stroke-dasharray="3"/></g><g transform="translate(10,10) scale(1,1)"><path fill="none" stroke="#000000" d="M 348.16267485762415 491.790482243984 L 338 496 L 348.16267485762415 500.209517756016" stroke-miterlimit="10"/></g><g transform="translate(10,10) scale(1,1)"><g><path fill="none" stroke="none"/><text fill="#000000" stroke="none" font-family="Arial" font-size="13px" font-style="normal" font-weight="normal" text-decoration="none" x="429.982421875" y="511">11 : </text></g></g><g transform="translate(10,10) scale(1,1)"><path fill="none" stroke="#000000" d="M 325 504 L 116 504" stroke-miterlimit="10" stroke-dasharray="3"/></g><g transform="translate(10,10) scale(1,1)"><path fill="none" stroke="#000000" d="M 126.16267485762415 499.790482243984 L 116 504 L 126.16267485762415 508.209517756016" stroke-miterlimit="10"/></g><g transform="translate(10,10) scale(1,1)"><g><path fill="none" stroke="none"/><text fill="#000000" stroke="none" font-family="Arial" font-size="13px" font-style="normal" font-weight="normal" text-decoration="none" x="206.5" y="519">12 : </text></g></g><g transform="translate(10,10) scale(1,1)"><path fill="none" stroke="#000000" d="M 96 280 L 576 280 L 576 544 L 96 544 L 96 280" stroke-miterlimit="10"/></g><g transform="translate(10,10) scale(1,1)"><path fill="#ffffff" stroke="none" d="M 96 280 L 96 302 L 247.84619140625 302 L 258.84619140625 291 L 258.84619140625 280 L 96 280"/></g><g transform="translate(10,10) scale(1,1)"><path fill="none" stroke="#000000" d="M 96 280 L 96 302 L 247.84619140625 302 L 258.84619140625 291 L 258.84619140625 280 L 96 280 L 96 280" stroke-miterlimit="10"/></g><g transform="translate(10,10) scale(1,1)"><g><path fill="none" stroke="none"/><text fill="#000000" stroke="none" font-family="Arial" font-size="13px" font-style="normal" font-weight="normal" text-decoration="none" x="120.72998046875" y="296">CombinedFragment1</text></g></g><g transform="translate(10,10) scale(1,1)"><g><path fill="none" stroke="none"/><text fill="#000000" stroke="none" font-family="Arial" font-size="13px" font-style="normal" font-weight="bold" text-decoration="none" x="100.279541015625" y="296">alt</text></g></g><g transform="translate(10,10) scale(1,1)"><g><path fill="none" stroke="none"/><text fill="#000000" stroke="none" font-family="Arial" font-size="13px" font-style="normal" font-weight="normal" text-decoration="none" x="115.5" y="329.5">[반환 값 == 10]</text></g></g><g transform="translate(10,10) scale(1,1)"><path fill="none" stroke="#000000" d="M 96 369 L 576 369" stroke-miterlimit="10" stroke-dasharray="10,3"/></g><g transform="translate(10,10) scale(1,1)"><g><path fill="none" stroke="none"/><text fill="#000000" stroke="none" font-family="Arial" font-size="13px" font-style="normal" font-weight="normal" text-decoration="none" x="115.5" y="395.5">[반환 값 == 20]</text></g></g><g transform="translate(10,10) scale(1,1)"><path fill="none" stroke="#000000" d="M 96 449 L 576 449" stroke-miterlimit="10" stroke-dasharray="10,3"/></g><g transform="translate(10,10) scale(1,1)"><g><path fill="none" stroke="none"/><text fill="#000000" stroke="none" font-family="Arial" font-size="13px" font-style="normal" font-weight="normal" text-decoration="none" x="115.5" y="475.5">[반환 값 == 30]</text></g></g></g></svg>