<svg version="1.1" xmlns="http://www.w3.org/2000/svg" xmlns:xlink="http://www.w3.org/1999/xlink" width="758.01904296875" height="862"><defs/><g><text fill="#eeeeee" stroke="none" font-family="Arial" font-size="24px" font-style="normal" font-weight="normal" text-decoration="none" x="0" y="0"></text><text fill="#eeeeee" stroke="none" font-family="Arial" font-size="24px" font-style="normal" font-weight="normal" text-decoration="none" x="0" y="30"></text><text fill="#eeeeee" stroke="none" font-family="Arial" font-size="24px" font-style="normal" font-weight="normal" text-decoration="none" x="0" y="60"></text><text fill="#eeeeee" stroke="none" font-family="Arial" font-size="24px" font-style="normal" font-weight="normal" text-decoration="none" x="0" y="90"></text><text fill="#eeeeee" stroke="none" font-family="Arial" font-size="24px" font-style="normal" font-weight="normal" text-decoration="none" x="0" y="120"></text><text fill="#eeeeee" stroke="none" font-family="Arial" font-size="24px" font-style="normal" font-weight="normal" text-decoration="none" x="0" y="150"></text><text fill="#eeeeee" stroke="none" font-family="Arial" font-size="24px" font-style="normal" font-weight="normal" text-decoration="none" x="0" y="180"></text><text fill="#eeeeee" stroke="none" font-family="Arial" font-size="24px" font-style="normal" font-weight="normal" text-decoration="none" x="0" y="210"></text><text fill="#eeeeee" stroke="none" font-family="Arial" font-size="24px" font-style="normal" font-weight="normal" text-decoration="none" x="0" y="240"></text><text fill="#eeeeee" stroke="none" font-family="Arial" font-size="24px" font-style="normal" font-weight="normal" text-decoration="none" x="0" y="270"></text><text fill="#eeeeee" stroke="none" font-family="Arial" font-size="24px" font-style="normal" font-weight="normal" text-decoration="none" x="0" y="300"></text><text fill="#eeeeee" stroke="none" font-family="Arial" font-size="24px" font-style="normal" font-weight="normal" text-decoration="none" x="0" y="330"></text><text fill="#eeeeee" stroke="none" font-family="Arial" font-size="24px" font-style="normal" font-weight="normal" text-decoration="none" x="0" y="360"></text><text fill="#eeeeee" stroke="none" font-family="Arial" font-size="24px" font-style="normal" font-weight="normal" text-decoration="none" x="0" y="390"></text><text fill="#eeeeee" stroke="none" font-family="Arial" font-size="24px" font-style="normal" font-weight="normal" text-decoration="none" x="0" y="420"></text><text fill="#eeeeee" stroke="none" font-family="Arial" font-size="24px" font-style="normal" font-weight="normal" text-decoration="none" x="0" y="450"></text><text fill="#eeeeee" stroke="none" font-family="Arial" font-size="24px" font-style="normal" font-weight="normal" text-decoration="none" x="0" y="480"></text><text fill="#eeeeee" stroke="none" font-family="Arial" font-size="24px" font-style="normal" font-weight="normal" text-decoration="none" x="0" y="510"></text><text fill="#eeeeee" stroke="none" font-family="Arial" font-size="24px" font-style="normal" font-weight="normal" text-decoration="none" x="0" y="540"></text><text fill="#eeeeee" stroke="none" font-family="Arial" font-size="24px" font-style="normal" font-weight="normal" text-decoration="none" x="0" y="570"></text><text fill="#eeeeee" stroke="none" font-family="Arial" font-size="24px" font-style="normal" font-weight="normal" text-decoration="none" x="0" y="600"></text><text fill="#eeeeee" stroke="none" font-family="Arial" font-size="24px" font-style="normal" font-weight="normal" text-decoration="none" x="0" y="630"></text><text fill="#eeeeee" stroke="none" font-family="Arial" font-size="24px" font-style="normal" font-weight="normal" text-decoration="none" x="0" y="660"></text><text fill="#eeeeee" stroke="none" font-family="Arial" font-size="24px" font-style="normal" font-weight="normal" text-decoration="none" x="0" y="690"></text><text fill="#eeeeee" stroke="none" font-family="Arial" font-size="24px" font-style="normal" font-weight="normal" text-decoration="none" x="0" y="720"></text><text fill="#eeeeee" stroke="none" font-family="Arial" font-size="24px" font-style="normal" font-weight="normal" text-decoration="none" x="0" y="750"></text><text fill="#eeeeee" stroke="none" font-family="Arial" font-size="24px" font-style="normal" font-weight="normal" text-decoration="none" x="0" y="780"></text><text fill="#eeeeee" stroke="none" font-family="Arial" font-size="24px" font-style="normal" font-weight="normal" text-decoration="none" x="0" y="810"></text><text fill="#eeeeee" stroke="none" font-family="Arial" font-size="24px" font-style="normal" font-weight="normal" text-decoration="none" x="0" y="840"></text><text fill="#eeeeee" stroke="none" font-family="Arial" font-size="24px" font-style="normal" font-weight="normal" text-decoration="none" x="200" y="0"></text><text fill="#eeeeee" stroke="none" font-family="Arial" font-size="24px" font-style="normal" font-weight="normal" text-decoration="none" x="200" y="30"></text><text fill="#eeeeee" stroke="none" font-family="Arial" font-size="24px" font-style="normal" font-weight="normal" text-decoration="none" x="200" y="60"></text><text fill="#eeeeee" stroke="none" font-family="Arial" font-size="24px" font-style="normal" font-weight="normal" text-decoration="none" x="200" y="90"></text><text fill="#eeeeee" stroke="none" font-family="Arial" font-size="24px" font-style="normal" font-weight="normal" text-decoration="none" x="200" y="120"></text><text fill="#eeeeee" stroke="none" font-family="Arial" font-size="24px" font-style="normal" font-weight="normal" text-decoration="none" x="200" y="150"></text><text fill="#eeeeee" stroke="none" font-family="Arial" font-size="24px" font-style="normal" font-weight="normal" text-decoration="none" x="200" y="180"></text><text fill="#eeeeee" stroke="none" font-family="Arial" font-size="24px" font-style="normal" font-weight="normal" text-decoration="none" x="200" y="210"></text><text fill="#eeeeee" stroke="none" font-family="Arial" font-size="24px" font-style="normal" font-weight="normal" text-decoration="none" x="200" y="240"></text><text fill="#eeeeee" stroke="none" font-family="Arial" font-size="24px" font-style="normal" font-weight="normal" text-decoration="none" x="200" y="270"></text><text fill="#eeeeee" stroke="none" font-family="Arial" font-size="24px" font-style="normal" font-weight="normal" text-decoration="none" x="200" y="300"></text><text fill="#eeeeee" stroke="none" font-family="Arial" font-size="24px" font-style="normal" font-weight="normal" text-decoration="none" x="200" y="330"></text><text fill="#eeeeee" stroke="none" font-family="Arial" font-size="24px" font-style="normal" font-weight="normal" text-decoration="none" x="200" y="360"></text><text fill="#eeeeee" stroke="none" font-family="Arial" font-size="24px" font-style="normal" font-weight="normal" text-decoration="none" x="200" y="390"></text><text fill="#eeeeee" stroke="none" font-family="Arial" font-size="24px" font-style="normal" font-weight="normal" text-decoration="none" x="200" y="420"></text><text fill="#eeeeee" stroke="none" font-family="Arial" font-size="24px" font-style="normal" font-weight="normal" text-decoration="none" x="200" y="450"></text><text fill="#eeeeee" stroke="none" font-family="Arial" font-size="24px" font-style="normal" font-weight="normal" text-decoration="none" x="200" y="480"></text><text fill="#eeeeee" stroke="none" font-family="Arial" font-size="24px" font-style="normal" font-weight="normal" text-decoration="none" x="200" y="510"></text><text fill="#eeeeee" stroke="none" font-family="Arial" font-size="24px" font-style="normal" font-weight="normal" text-decoration="none" x="200" y="540"></text><text fill="#eeeeee" stroke="none" font-family="Arial" font-size="24px" font-style="normal" font-weight="normal" text-decoration="none" x="200" y="570"></text><text fill="#eeeeee" stroke="none" font-family="Arial" font-size="24px" font-style="normal" font-weight="normal" text-decoration="none" x="200" y="600"></text><text fill="#eeeeee" stroke="none" font-family="Arial" font-size="24px" font-style="normal" font-weight="normal" text-decoration="none" x="200" y="630"></text><text fill="#eeeeee" stroke="none" font-family="Arial" font-size="24px" font-style="normal" font-weight="normal" text-decoration="none" x="200" y="660"></text><text fill="#eeeeee" stroke="none" font-family="Arial" font-size="24px" font-style="normal" font-weight="normal" text-decoration="none" x="200" y="690"></text><text fill="#eeeeee" stroke="none" font-family="Arial" font-size="24px" font-style="normal" font-weight="normal" text-decoration="none" x="200" y="720"></text><text fill="#eeeeee" stroke="none" font-family="Arial" font-size="24px" font-style="normal" font-weight="normal" text-decoration="none" x="200" y="750"></text><text fill="#eeeeee" stroke="none" font-family="Arial" font-size="24px" font-style="normal" font-weight="normal" text-decoration="none" x="200" y="780"></text><text fill="#eeeeee" stroke="none" font-family="Arial" font-size="24px" font-style="normal" font-weight="normal" text-decoration="none" x="200" y="810"></text><text fill="#eeeeee" stroke="none" font-family="Arial" font-size="24px" font-style="normal" font-weight="normal" text-decoration="none" x="200" y="840"></text><text fill="#eeeeee" stroke="none" font-family="Arial" font-size="24px" font-style="normal" font-weight="normal" text-decoration="none" x="400" y="0"></text><text fill="#eeeeee" stroke="none" font-family="Arial" font-size="24px" font-style="normal" font-weight="normal" text-decoration="none" x="400" y="30"></text><text fill="#eeeeee" stroke="none" font-family="Arial" font-size="24px" font-style="normal" font-weight="normal" text-decoration="none" x="400" y="60"></text><text fill="#eeeeee" stroke="none" font-family="Arial" font-size="24px" font-style="normal" font-weight="normal" text-decoration="none" x="400" y="90"></text><text fill="#eeeeee" stroke="none" font-family="Arial" font-size="24px" font-style="normal" font-weight="normal" text-decoration="none" x="400" y="120"></text><text fill="#eeeeee" stroke="none" font-family="Arial" font-size="24px" font-style="normal" font-weight="normal" text-decoration="none" x="400" y="150"></text><text fill="#eeeeee" stroke="none" font-family="Arial" font-size="24px" font-style="normal" font-weight="normal" text-decoration="none" x="400" y="180"></text><text fill="#eeeeee" stroke="none" font-family="Arial" font-size="24px" font-style="normal" font-weight="normal" text-decoration="none" x="400" y="210"></text><text fill="#eeeeee" stroke="none" font-family="Arial" font-size="24px" font-style="normal" font-weight="normal" text-decoration="none" x="400" y="240"></text><text fill="#eeeeee" stroke="none" font-family="Arial" font-size="24px" font-style="normal" font-weight="normal" text-decoration="none" x="400" y="270"></text><text fill="#eeeeee" stroke="none" font-family="Arial" font-size="24px" font-style="normal" font-weight="normal" text-decoration="none" x="400" y="300"></text><text fill="#eeeeee" stroke="none" font-family="Arial" font-size="24px" font-style="normal" font-weight="normal" text-decoration="none" x="400" y="330"></text><text fill="#eeeeee" stroke="none" font-family="Arial" font-size="24px" font-style="normal" font-weight="normal" text-decoration="none" x="400" y="360"></text><text fill="#eeeeee" stroke="none" font-family="Arial" font-size="24px" font-style="normal" font-weight="normal" text-decoration="none" x="400" y="390"></text><text fill="#eeeeee" stroke="none" font-family="Arial" font-size="24px" font-style="normal" font-weight="normal" text-decoration="none" x="400" y="420"></text><text fill="#eeeeee" stroke="none" font-family="Arial" font-size="24px" font-style="normal" font-weight="normal" text-decoration="none" x="400" y="450"></text><text fill="#eeeeee" stroke="none" font-family="Arial" font-size="24px" font-style="normal" font-weight="normal" text-decoration="none" x="400" y="480"></text><text fill="#eeeeee" stroke="none" font-family="Arial" font-size="24px" font-style="normal" font-weight="normal" text-decoration="none" x="400" y="510"></text><text fill="#eeeeee" stroke="none" font-family="Arial" font-size="24px" font-style="normal" font-weight="normal" text-decoration="none" x="400" y="540"></text><text fill="#eeeeee" stroke="none" font-family="Arial" font-size="24px" font-style="normal" font-weight="normal" text-decoration="none" x="400" y="570"></text><text fill="#eeeeee" stroke="none" font-family="Arial" font-size="24px" font-style="normal" font-weight="normal" text-decoration="none" x="400" y="600"></text><text fill="#eeeeee" stroke="none" font-family="Arial" font-size="24px" font-style="normal" font-weight="normal" text-decoration="none" x="400" y="630"></text><text fill="#eeeeee" stroke="none" font-family="Arial" font-size="24px" font-style="normal" font-weight="normal" text-decoration="none" x="400" y="660"></text><text fill="#eeeeee" stroke="none" font-family="Arial" font-size="24px" font-style="normal" font-weight="normal" text-decoration="none" x="400" y="690"></text><text fill="#eeeeee" stroke="none" font-family="Arial" font-size="24px" font-style="normal" font-weight="normal" text-decoration="none" x="400" y="720"></text><text fill="#eeeeee" stroke="none" font-family="Arial" font-size="24px" font-style="normal" font-weight="normal" text-decoration="none" x="400" y="750"></text><text fill="#eeeeee" stroke="none" font-family="Arial" font-size="24px" font-style="normal" font-weight="normal" text-decoration="none" x="400" y="780"></text><text fill="#eeeeee" stroke="none" font-family="Arial" font-size="24px" font-style="normal" font-weight="normal" text-decoration="none" x="400" y="810"></text><text fill="#eeeeee" stroke="none" font-family="Arial" font-size="24px" font-style="normal" font-weight="normal" text-decoration="none" x="400" y="840"></text><text fill="#eeeeee" stroke="none" font-family="Arial" font-size="24px" font-style="normal" font-weight="normal" text-decoration="none" x="600" y="0"></text><text fill="#eeeeee" stroke="none" font-family="Arial" font-size="24px" font-style="normal" font-weight="normal" text-decoration="none" x="600" y="30"></text><text fill="#eeeeee" stroke="none" font-family="Arial" font-size="24px" font-style="normal" font-weight="normal" text-decoration="none" x="600" y="60"></text><text fill="#eeeeee" stroke="none" font-family="Arial" font-size="24px" font-style="normal" font-weight="normal" text-decoration="none" x="600" y="90"></text><text fill="#eeeeee" stroke="none" font-family="Arial" font-size="24px" font-style="normal" font-weight="normal" text-decoration="none" x="600" y="120"></text><text fill="#eeeeee" stroke="none" font-family="Arial" font-size="24px" font-style="normal" font-weight="normal" text-decoration="none" x="600" y="150"></text><text fill="#eeeeee" stroke="none" font-family="Arial" font-size="24px" font-style="normal" font-weight="normal" text-decoration="none" x="600" y="180"></text><text fill="#eeeeee" stroke="none" font-family="Arial" font-size="24px" font-style="normal" font-weight="normal" text-decoration="none" x="600" y="210"></text><text fill="#eeeeee" stroke="none" font-family="Arial" font-size="24px" font-style="normal" font-weight="normal" text-decoration="none" x="600" y="240"></text><text fill="#eeeeee" stroke="none" font-family="Arial" font-size="24px" font-style="normal" font-weight="normal" text-decoration="none" x="600" y="270"></text><text fill="#eeeeee" stroke="none" font-family="Arial" font-size="24px" font-style="normal" font-weight="normal" text-decoration="none" x="600" y="300"></text><text fill="#eeeeee" stroke="none" font-family="Arial" font-size="24px" font-style="normal" font-weight="normal" text-decoration="none" x="600" y="330"></text><text fill="#eeeeee" stroke="none" font-family="Arial" font-size="24px" font-style="normal" font-weight="normal" text-decoration="none" x="600" y="360"></text><text fill="#eeeeee" stroke="none" font-family="Arial" font-size="24px" font-style="normal" font-weight="normal" text-decoration="none" x="600" y="390"></text><text fill="#eeeeee" stroke="none" font-family="Arial" font-size="24px" font-style="normal" font-weight="normal" text-decoration="none" x="600" y="420"></text><text fill="#eeeeee" stroke="none" font-family="Arial" font-size="24px" font-style="normal" font-weight="normal" text-decoration="none" x="600" y="450"></text><text fill="#eeeeee" stroke="none" font-family="Arial" font-size="24px" font-style="normal" font-weight="normal" text-decoration="none" x="600" y="480"></text><text fill="#eeeeee" stroke="none" font-family="Arial" font-size="24px" font-style="normal" font-weight="normal" text-decoration="none" x="600" y="510"></text><text fill="#eeeeee" stroke="none" font-family="Arial" font-size="24px" font-style="normal" font-weight="normal" text-decoration="none" x="600" y="540"></text><text fill="#eeeeee" stroke="none" font-family="Arial" font-size="24px" font-style="normal" font-weight="normal" text-decoration="none" x="600" y="570"></text><text fill="#eeeeee" stroke="none" font-family="Arial" font-size="24px" font-style="normal" font-weight="normal" text-decoration="none" x="600" y="600"></text><text fill="#eeeeee" stroke="none" font-family="Arial" font-size="24px" font-style="normal" font-weight="normal" text-decoration="none" x="600" y="630"></text><text fill="#eeeeee" stroke="none" font-family="Arial" font-size="24px" font-style="normal" font-weight="normal" text-decoration="none" x="600" y="660"></text><text fill="#eeeeee" stroke="none" font-family="Arial" font-size="24px" font-style="normal" font-weight="normal" text-decoration="none" x="600" y="690"></text><text fill="#eeeeee" stroke="none" font-family="Arial" font-size="24px" font-style="normal" font-weight="normal" text-decoration="none" x="600" y="720"></text><text fill="#eeeeee" stroke="none" font-family="Arial" font-size="24px" font-style="normal" font-weight="normal" text-decoration="none" x="600" y="750"></text><text fill="#eeeeee" stroke="none" font-family="Arial" font-size="24px" font-style="normal" font-weight="normal" text-decoration="none" x="600" y="780"></text><text fill="#eeeeee" stroke="none" font-family="Arial" font-size="24px" font-style="normal" font-weight="normal" text-decoration="none" x="600" y="810"></text><text fill="#eeeeee" stroke="none" font-family="Arial" font-size="24px" font-style="normal" font-weight="normal" text-decoration="none" x="600" y="840"></text><g transform="translate(-14,-14) scale(1,1)"><path fill="#ffffff" stroke="none" d="M 47.62663547585227 33.68 C 47.62663547585227 28.886167936 51.512477800797726 25 56.305908203125 25 C 61.099338605452274 25 64.98518093039773 28.886167936 64.98518093039773 33.68 C 64.98518093039773 38.473832064 61.099338605452274 42.36 56.305908203125 42.36 C 51.512477800797726 42.36 47.62663547585227 38.473832064 47.62663547585227 33.68 Z"/></g><g transform="translate(-14,-14) scale(1,1)"><path fill="none" stroke="#000000" d="M 47.62663547585227 33.68 C 47.62663547585227 28.886167936 51.512477800797726 25 56.305908203125 25 C 61.099338605452274 25 64.98518093039773 28.886167936 64.98518093039773 33.68 C 64.98518093039773 38.473832064 61.099338605452274 42.36 56.305908203125 42.36 C 51.512477800797726 42.36 47.62663547585227 38.473832064 47.62663547585227 33.68 Z" stroke-miterlimit="10"/></g><g transform="translate(-14,-14) scale(1,1)"><path fill="none" stroke="#000000" d="M 56.305908203125 42.36 L 56.305908203125 59.64" stroke-miterlimit="10"/></g><g transform="translate(-14,-14) scale(1,1)"><path fill="none" stroke="#000000" d="M 47.11609002130682 48.84 L 65.49572638494318 48.84" stroke-miterlimit="10"/></g><g transform="translate(-14,-14) scale(1,1)"><path fill="none" stroke="#000000" d="M 56.305908203125 59.64 L 43.542271839488635 77" stroke-miterlimit="10"/></g><g transform="translate(-14,-14) scale(1,1)"><path fill="none" stroke="#000000" d="M 56.305908203125 59.64 L 69.06954456676137 77" stroke-miterlimit="10"/></g><g transform="translate(-14,-14) scale(1,1)"><g><path fill="none" stroke="none"/><text fill="#000000" stroke="none" font-family="Arial" font-size="13px" font-style="normal" font-weight="bold" text-decoration="none" x="28.5" y="96.5">일반 고객</text></g></g><g transform="translate(-14,-14) scale(1,1)"><path fill="#ffffff" stroke="none" d="M 128.40935031960228 185.68 C 128.40935031960228 180.886167936 132.29519264454774 177 137.088623046875 177 C 141.88205344920226 177 145.76789577414772 180.886167936 145.76789577414772 185.68 C 145.76789577414772 190.47383206400002 141.88205344920226 194.36 137.088623046875 194.36 C 132.29519264454774 194.36 128.40935031960228 190.47383206400002 128.40935031960228 185.68 Z"/></g><g transform="translate(-14,-14) scale(1,1)"><path fill="none" stroke="#000000" d="M 128.40935031960228 185.68 C 128.40935031960228 180.886167936 132.29519264454774 177 137.088623046875 177 C 141.88205344920226 177 145.76789577414772 180.886167936 145.76789577414772 185.68 C 145.76789577414772 190.47383206400002 141.88205344920226 194.36 137.088623046875 194.36 C 132.29519264454774 194.36 128.40935031960228 190.47383206400002 128.40935031960228 185.68 Z" stroke-miterlimit="10"/></g><g transform="translate(-14,-14) scale(1,1)"><path fill="none" stroke="#000000" d="M 137.088623046875 194.36 L 137.088623046875 211.64" stroke-miterlimit="10"/></g><g transform="translate(-14,-14) scale(1,1)"><path fill="none" stroke="#000000" d="M 127.89880486505683 200.84 L 146.27844122869317 200.84" stroke-miterlimit="10"/></g><g transform="translate(-14,-14) scale(1,1)"><path fill="none" stroke="#000000" d="M 137.088623046875 211.64 L 124.32498668323865 229" stroke-miterlimit="10"/></g><g transform="translate(-14,-14) scale(1,1)"><path fill="none" stroke="#000000" d="M 137.088623046875 211.64 L 149.85225941051135 229" stroke-miterlimit="10"/></g><g transform="translate(-14,-14) scale(1,1)"><g><path fill="none" stroke="none"/><text fill="#000000" stroke="none" font-family="Arial" font-size="13px" font-style="normal" font-weight="bold" text-decoration="none" x="124.088623046875" y="248.5">회원</text></g></g><g transform="translate(-14,-14) scale(1,1)"><path fill="#ffffff" stroke="none" d="M 56.40935031960227 569.6800000000001 C 56.40935031960227 564.8861679360001 60.295192644547726 561 65.088623046875 561 C 69.88205344920227 561 73.76789577414773 564.8861679360001 73.76789577414773 569.6800000000001 C 73.76789577414773 574.473832064 69.88205344920227 578.36 65.088623046875 578.36 C 60.295192644547726 578.36 56.40935031960227 574.473832064 56.40935031960227 569.6800000000001 Z"/></g><g transform="translate(-14,-14) scale(1,1)"><path fill="none" stroke="#000000" d="M 56.40935031960227 569.6800000000001 C 56.40935031960227 564.8861679360001 60.295192644547726 561 65.088623046875 561 C 69.88205344920227 561 73.76789577414773 564.8861679360001 73.76789577414773 569.6800000000001 C 73.76789577414773 574.473832064 69.88205344920227 578.36 65.088623046875 578.36 C 60.295192644547726 578.36 56.40935031960227 574.473832064 56.40935031960227 569.6800000000001 Z" stroke-miterlimit="10"/></g><g transform="translate(-14,-14) scale(1,1)"><path fill="none" stroke="#000000" d="M 65.088623046875 578.36 L 65.088623046875 595.64" stroke-miterlimit="10"/></g><g transform="translate(-14,-14) scale(1,1)"><path fill="none" stroke="#000000" d="M 55.89880486505682 584.84 L 74.27844122869318 584.84" stroke-miterlimit="10"/></g><g transform="translate(-14,-14) scale(1,1)"><path fill="none" stroke="#000000" d="M 65.088623046875 595.64 L 52.324986683238635 613" stroke-miterlimit="10"/></g><g transform="translate(-14,-14) scale(1,1)"><path fill="none" stroke="#000000" d="M 65.088623046875 595.64 L 77.85225941051137 613" stroke-miterlimit="10"/></g><g transform="translate(-14,-14) scale(1,1)"><g><path fill="none" stroke="none"/><text fill="#000000" stroke="none" font-family="Arial" font-size="13px" font-style="normal" font-weight="bold" text-decoration="none" x="45.588623046875" y="632.5">관리자</text></g></g><g transform="translate(-14,-14) scale(1,1)"><path fill="#ffffff" stroke="none" d="M 716.3302487571023 449.68 C 716.3302487571023 444.886167936 720.2160910820477 441 725.009521484375 441 C 729.8029518867023 441 733.6887942116477 444.886167936 733.6887942116477 449.68 C 733.6887942116477 454.473832064 729.8029518867023 458.36 725.009521484375 458.36 C 720.2160910820477 458.36 716.3302487571023 454.473832064 716.3302487571023 449.68 Z"/></g><g transform="translate(-14,-14) scale(1,1)"><path fill="none" stroke="#000000" d="M 716.3302487571023 449.68 C 716.3302487571023 444.886167936 720.2160910820477 441 725.009521484375 441 C 729.8029518867023 441 733.6887942116477 444.886167936 733.6887942116477 449.68 C 733.6887942116477 454.473832064 729.8029518867023 458.36 725.009521484375 458.36 C 720.2160910820477 458.36 716.3302487571023 454.473832064 716.3302487571023 449.68 Z" stroke-miterlimit="10"/></g><g transform="translate(-14,-14) scale(1,1)"><path fill="none" stroke="#000000" d="M 725.009521484375 458.36 L 725.009521484375 475.64" stroke-miterlimit="10"/></g><g transform="translate(-14,-14) scale(1,1)"><path fill="none" stroke="#000000" d="M 715.8197033025568 464.84 L 734.1993396661932 464.84" stroke-miterlimit="10"/></g><g transform="translate(-14,-14) scale(1,1)"><path fill="none" stroke="#000000" d="M 725.009521484375 475.64 L 712.2458851207386 493" stroke-miterlimit="10"/></g><g transform="translate(-14,-14) scale(1,1)"><path fill="none" stroke="#000000" d="M 725.009521484375 475.64 L 737.7731578480114 493" stroke-miterlimit="10"/></g><g transform="translate(-14,-14) scale(1,1)"><g><path fill="none" stroke="none"/><text fill="#000000" stroke="none" font-family="Arial" font-size="13px" font-style="normal" font-weight="bold" text-decoration="none" x="692.5" y="512.5">sms시스템</text></g></g><g transform="translate(-14,-14) scale(1,1)"><path fill="#ffffff" stroke="none" d="M 48.40935031960227 337.68 C 48.40935031960227 332.886167936 52.295192644547726 329 57.088623046875 329 C 61.882053449202274 329 65.76789577414773 332.886167936 65.76789577414773 337.68 C 65.76789577414773 342.473832064 61.882053449202274 346.36 57.088623046875 346.36 C 52.295192644547726 346.36 48.40935031960227 342.473832064 48.40935031960227 337.68 Z"/></g><g transform="translate(-14,-14) scale(1,1)"><path fill="none" stroke="#000000" d="M 48.40935031960227 337.68 C 48.40935031960227 332.886167936 52.295192644547726 329 57.088623046875 329 C 61.882053449202274 329 65.76789577414773 332.886167936 65.76789577414773 337.68 C 65.76789577414773 342.473832064 61.882053449202274 346.36 57.088623046875 346.36 C 52.295192644547726 346.36 48.40935031960227 342.473832064 48.40935031960227 337.68 Z" stroke-miterlimit="10"/></g><g transform="translate(-14,-14) scale(1,1)"><path fill="none" stroke="#000000" d="M 57.088623046875 346.36 L 57.088623046875 363.64" stroke-miterlimit="10"/></g><g transform="translate(-14,-14) scale(1,1)"><path fill="none" stroke="#000000" d="M 47.89880486505682 352.84 L 66.27844122869318 352.84" stroke-miterlimit="10"/></g><g transform="translate(-14,-14) scale(1,1)"><path fill="none" stroke="#000000" d="M 57.088623046875 363.64 L 44.324986683238635 381" stroke-miterlimit="10"/></g><g transform="translate(-14,-14) scale(1,1)"><path fill="none" stroke="#000000" d="M 57.088623046875 363.64 L 69.85225941051137 381" stroke-miterlimit="10"/></g><g transform="translate(-14,-14) scale(1,1)"><g><path fill="none" stroke="none"/><text fill="#000000" stroke="none" font-family="Arial" font-size="13px" font-style="normal" font-weight="bold" text-decoration="none" x="37.588623046875" y="400.5">구매자</text></g></g><g transform="translate(-14,-14) scale(1,1)"><path fill="#C0C0C0" stroke="none" d="M 319 232 C 319 222.6111584 341.6096176 215 369.5 215 C 397.3903824 215 420 222.6111584 420 232 C 420 241.3888416 397.3903824 249 369.5 249 C 341.6096176 249 319 241.3888416 319 232 Z" opacity="0.2"/></g><g transform="translate(-14,-14) scale(1,1)"><path fill="#ffffff" stroke="none" d="M 312 225 C 312 215.6111584 334.6096176 208 362.5 208 C 390.3903824 208 413 215.6111584 413 225 C 413 234.3888416 390.3903824 242 362.5 242 C 334.6096176 242 312 234.3888416 312 225 Z"/></g><g transform="translate(-14,-14) scale(1,1)"><path fill="none" stroke="#000000" d="M 312 225 C 312 215.6111584 334.6096176 208 362.5 208 C 390.3903824 208 413 215.6111584 413 225 C 413 234.3888416 390.3903824 242 362.5 242 C 334.6096176 242 312 234.3888416 312 225 Z" stroke-miterlimit="10"/></g><g transform="translate(-14,-14) scale(1,1)"><g><path fill="none" stroke="none"/><text fill="#000000" stroke="none" font-family="Arial" font-size="13px" font-style="normal" font-weight="bold" text-decoration="none" x="343" y="231">로그인</text></g></g><g transform="translate(-14,-14) scale(1,1)"><path fill="#C0C0C0" stroke="none" d="M 167 56 C 167 46.6111584 189.6096176 39 217.5 39 C 245.3903824 39 268 46.6111584 268 56 C 268 65.3888416 245.3903824 73 217.5 73 C 189.6096176 73 167 65.3888416 167 56 Z" opacity="0.2"/></g><g transform="translate(-14,-14) scale(1,1)"><path fill="#ffffff" stroke="none" d="M 160 49 C 160 39.6111584 182.6096176 32 210.5 32 C 238.3903824 32 261 39.6111584 261 49 C 261 58.3888416 238.3903824 66 210.5 66 C 182.6096176 66 160 58.3888416 160 49 Z"/></g><g transform="translate(-14,-14) scale(1,1)"><path fill="none" stroke="#000000" d="M 160 49 C 160 39.6111584 182.6096176 32 210.5 32 C 238.3903824 32 261 39.6111584 261 49 C 261 58.3888416 238.3903824 66 210.5 66 C 182.6096176 66 160 58.3888416 160 49 Z" stroke-miterlimit="10"/></g><g transform="translate(-14,-14) scale(1,1)"><g><path fill="none" stroke="none"/><text fill="#000000" stroke="none" font-family="Arial" font-size="13px" font-style="normal" font-weight="bold" text-decoration="none" x="182.694091796875" y="55">회원 가입</text></g></g><g transform="translate(-14,-14) scale(1,1)"><path fill="#C0C0C0" stroke="none" d="M 559 328 C 559 318.6111584 574.4461744 311 593.5 311 C 612.5538256 311 628 318.6111584 628 328 C 628 337.3888416 612.5538256 345 593.5 345 C 574.4461744 345 559 337.3888416 559 328 Z" opacity="0.2"/></g><g transform="translate(-14,-14) scale(1,1)"><path fill="#ffffff" stroke="none" d="M 552 321 C 552 311.6111584 567.4461744 304 586.5 304 C 605.5538256 304 621 311.6111584 621 321 C 621 330.3888416 605.5538256 338 586.5 338 C 567.4461744 338 552 330.3888416 552 321 Z"/></g><g transform="translate(-14,-14) scale(1,1)"><path fill="none" stroke="#000000" d="M 552 321 C 552 311.6111584 567.4461744 304 586.5 304 C 605.5538256 304 621 311.6111584 621 321 C 621 330.3888416 605.5538256 338 586.5 338 C 567.4461744 338 552 330.3888416 552 321 Z" stroke-miterlimit="10"/></g><g transform="translate(-14,-14) scale(1,1)"><g><path fill="none" stroke="none"/><text fill="#000000" stroke="none" font-family="Arial" font-size="13px" font-style="normal" font-weight="bold" text-decoration="none" x="573.5" y="327">수정</text></g></g><g transform="translate(-14,-14) scale(1,1)"><path fill="#C0C0C0" stroke="none" d="M 311 288 C 311 278.6111584 343.6832096 271 384 271 C 424.3167904 271 457 278.6111584 457 288 C 457 297.3888416 424.3167904 305 384 305 C 343.6832096 305 311 297.3888416 311 288 Z" opacity="0.2"/></g><g transform="translate(-14,-14) scale(1,1)"><path fill="#ffffff" stroke="none" d="M 304 281 C 304 271.6111584 336.6832096 264 377 264 C 417.3167904 264 450 271.6111584 450 281 C 450 290.3888416 417.3167904 298 377 298 C 336.6832096 298 304 290.3888416 304 281 Z"/></g><g transform="translate(-14,-14) scale(1,1)"><path fill="none" stroke="#000000" d="M 304 281 C 304 271.6111584 336.6832096 264 377 264 C 417.3167904 264 450 271.6111584 450 281 C 450 290.3888416 417.3167904 298 377 298 C 336.6832096 298 304 290.3888416 304 281 Z" stroke-miterlimit="10"/></g><g transform="translate(-14,-14) scale(1,1)"><g><path fill="none" stroke="none"/><text fill="#000000" stroke="none" font-family="Arial" font-size="13px" font-style="normal" font-weight="bold" text-decoration="none" x="329.694091796875" y="287">마이페이지 조회</text></g></g><g transform="translate(-14,-14) scale(1,1)"><path fill="#C0C0C0" stroke="none" d="M 559 264 C 559 254.6111584 574.4461744 247 593.5 247 C 612.5538256 247 628 254.6111584 628 264 C 628 273.3888416 612.5538256 281 593.5 281 C 574.4461744 281 559 273.3888416 559 264 Z" opacity="0.2"/></g><g transform="translate(-14,-14) scale(1,1)"><path fill="#ffffff" stroke="none" d="M 552 257 C 552 247.6111584 567.4461744 240 586.5 240 C 605.5538256 240 621 247.6111584 621 257 C 621 266.3888416 605.5538256 274 586.5 274 C 567.4461744 274 552 266.3888416 552 257 Z"/></g><g transform="translate(-14,-14) scale(1,1)"><path fill="none" stroke="#000000" d="M 552 257 C 552 247.6111584 567.4461744 240 586.5 240 C 605.5538256 240 621 247.6111584 621 257 C 621 266.3888416 605.5538256 274 586.5 274 C 567.4461744 274 552 266.3888416 552 257 Z" stroke-miterlimit="10"/></g><g transform="translate(-14,-14) scale(1,1)"><g><path fill="none" stroke="none"/><text fill="#000000" stroke="none" font-family="Arial" font-size="13px" font-style="normal" font-weight="bold" text-decoration="none" x="573.5" y="263">탈퇴</text></g></g><g transform="translate(-14,-14) scale(1,1)"><path fill="#C0C0C0" stroke="none" d="M 199 560 C 199 550.6111584 228.7730608 543 265.5 543 C 302.2269392 543 332 550.6111584 332 560 C 332 569.3888416 302.2269392 577 265.5 577 C 228.7730608 577 199 569.3888416 199 560 Z" opacity="0.2"/></g><g transform="translate(-14,-14) scale(1,1)"><path fill="#ffffff" stroke="none" d="M 192 553 C 192 543.6111584 221.7730608 536 258.5 536 C 295.2269392 536 325 543.6111584 325 553 C 325 562.3888416 295.2269392 570 258.5 570 C 221.7730608 570 192 562.3888416 192 553 Z"/></g><g transform="translate(-14,-14) scale(1,1)"><path fill="none" stroke="#000000" d="M 192 553 C 192 543.6111584 221.7730608 536 258.5 536 C 295.2269392 536 325 543.6111584 325 553 C 325 562.3888416 295.2269392 570 258.5 570 C 221.7730608 570 192 562.3888416 192 553 Z" stroke-miterlimit="10"/></g><g transform="translate(-14,-14) scale(1,1)"><g><path fill="none" stroke="none"/><text fill="#000000" stroke="none" font-family="Arial" font-size="13px" font-style="normal" font-weight="bold" text-decoration="none" x="215.88818359375" y="559">회원 정보 조회</text></g></g><g transform="translate(-14,-14) scale(1,1)"><path fill="#C0C0C0" stroke="none" d="M 215 608 C 215 598.6111584 237.6096176 591 265.5 591 C 293.3903824 591 316 598.6111584 316 608 C 316 617.3888416 293.3903824 625 265.5 625 C 237.6096176 625 215 617.3888416 215 608 Z" opacity="0.2"/></g><g transform="translate(-14,-14) scale(1,1)"><path fill="#ffffff" stroke="none" d="M 208 601 C 208 591.6111584 230.6096176 584 258.5 584 C 286.3903824 584 309 591.6111584 309 601 C 309 610.3888416 286.3903824 618 258.5 618 C 230.6096176 618 208 610.3888416 208 601 Z"/></g><g transform="translate(-14,-14) scale(1,1)"><path fill="none" stroke="#000000" d="M 208 601 C 208 591.6111584 230.6096176 584 258.5 584 C 286.3903824 584 309 591.6111584 309 601 C 309 610.3888416 286.3903824 618 258.5 618 C 230.6096176 618 208 610.3888416 208 601 Z" stroke-miterlimit="10"/></g><g transform="translate(-14,-14) scale(1,1)"><g><path fill="none" stroke="none"/><text fill="#000000" stroke="none" font-family="Arial" font-size="13px" font-style="normal" font-weight="bold" text-decoration="none" x="230.694091796875" y="607">회원 탈퇴</text></g></g><g transform="translate(-14,-14) scale(1,1)"><path fill="#C0C0C0" stroke="none" d="M 215 656 C 215 646.6111584 237.6096176 639 265.5 639 C 293.3903824 639 316 646.6111584 316 656 C 316 665.3888416 293.3903824 673 265.5 673 C 237.6096176 673 215 665.3888416 215 656 Z" opacity="0.2"/></g><g transform="translate(-14,-14) scale(1,1)"><path fill="#ffffff" stroke="none" d="M 208 649 C 208 639.6111584 230.6096176 632 258.5 632 C 286.3903824 632 309 639.6111584 309 649 C 309 658.3888416 286.3903824 666 258.5 666 C 230.6096176 666 208 658.3888416 208 649 Z"/></g><g transform="translate(-14,-14) scale(1,1)"><path fill="none" stroke="#000000" d="M 208 649 C 208 639.6111584 230.6096176 632 258.5 632 C 286.3903824 632 309 639.6111584 309 649 C 309 658.3888416 286.3903824 666 258.5 666 C 230.6096176 666 208 658.3888416 208 649 Z" stroke-miterlimit="10"/></g><g transform="translate(-14,-14) scale(1,1)"><g><path fill="none" stroke="none"/><text fill="#000000" stroke="none" font-family="Arial" font-size="13px" font-style="normal" font-weight="bold" text-decoration="none" x="230.694091796875" y="655">회원 수정</text></g></g><g transform="translate(-14,-14) scale(1,1)"><path fill="#C0C0C0" stroke="none" d="M 183 800 C 183 790.6111584 222.17508 783 270.5 783 C 318.82492 783 358 790.6111584 358 800 C 358 809.3888416 318.82492 817 270.5 817 C 222.17508 817 183 809.3888416 183 800 Z" opacity="0.2"/></g><g transform="translate(-14,-14) scale(1,1)"><path fill="#ffffff" stroke="none" d="M 176 793 C 176 783.6111584 215.17508 776 263.5 776 C 311.82492 776 351 783.6111584 351 793 C 351 802.3888416 311.82492 810 263.5 810 C 215.17508 810 176 802.3888416 176 793 Z"/></g><g transform="translate(-14,-14) scale(1,1)"><path fill="none" stroke="#000000" d="M 176 793 C 176 783.6111584 215.17508 776 263.5 776 C 311.82492 776 351 783.6111584 351 793 C 351 802.3888416 311.82492 810 263.5 810 C 215.17508 810 176 802.3888416 176 793 Z" stroke-miterlimit="10"/></g><g transform="translate(-14,-14) scale(1,1)"><g><path fill="none" stroke="none"/><text fill="#000000" stroke="none" font-family="Arial" font-size="13px" font-style="normal" font-weight="bold" text-decoration="none" x="206.082275390625" y="799">통계 조회 방문자 수</text></g></g><g transform="translate(-14,-14) scale(1,1)"><path fill="#C0C0C0" stroke="none" d="M 183 856 C 183 846.6111584 226.2045168 839 279.5 839 C 332.7954832 839 376 846.6111584 376 856 C 376 865.3888416 332.7954832 873 279.5 873 C 226.2045168 873 183 865.3888416 183 856 Z" opacity="0.2"/></g><g transform="translate(-14,-14) scale(1,1)"><path fill="#ffffff" stroke="none" d="M 176 849 C 176 839.6111584 219.2045168 832 272.5 832 C 325.7954832 832 369 839.6111584 369 849 C 369 858.3888416 325.7954832 866 272.5 866 C 219.2045168 866 176 858.3888416 176 849 Z"/></g><g transform="translate(-14,-14) scale(1,1)"><path fill="none" stroke="#000000" d="M 176 849 C 176 839.6111584 219.2045168 832 272.5 832 C 325.7954832 832 369 839.6111584 369 849 C 369 858.3888416 325.7954832 866 272.5 866 C 219.2045168 866 176 858.3888416 176 849 Z" stroke-miterlimit="10"/></g><g transform="translate(-14,-14) scale(1,1)"><g><path fill="none" stroke="none"/><text fill="#000000" stroke="none" font-family="Arial" font-size="13px" font-style="normal" font-weight="bold" text-decoration="none" x="208.582275390625" y="855">통계 조회 상품별 판매</text></g></g><g transform="translate(-14,-14) scale(1,1)"><path fill="#C0C0C0" stroke="none" d="M 199 704 C 199 694.6111584 228.7730608 687 265.5 687 C 302.2269392 687 332 694.6111584 332 704 C 332 713.3888416 302.2269392 721 265.5 721 C 228.7730608 721 199 713.3888416 199 704 Z" opacity="0.2"/></g><g transform="translate(-14,-14) scale(1,1)"><path fill="#ffffff" stroke="none" d="M 192 697 C 192 687.6111584 221.7730608 680 258.5 680 C 295.2269392 680 325 687.6111584 325 697 C 325 706.3888416 295.2269392 714 258.5 714 C 221.7730608 714 192 706.3888416 192 697 Z"/></g><g transform="translate(-14,-14) scale(1,1)"><path fill="none" stroke="#000000" d="M 192 697 C 192 687.6111584 221.7730608 680 258.5 680 C 295.2269392 680 325 687.6111584 325 697 C 325 706.3888416 295.2269392 714 258.5 714 C 221.7730608 714 192 706.3888416 192 697 Z" stroke-miterlimit="10"/></g><g transform="translate(-14,-14) scale(1,1)"><g><path fill="none" stroke="none"/><text fill="#000000" stroke="none" font-family="Arial" font-size="13px" font-style="normal" font-weight="bold" text-decoration="none" x="230.694091796875" y="703">상품 관리</text></g></g><g transform="translate(-14,-14) scale(1,1)"><path fill="#C0C0C0" stroke="none" d="M 439 680 C 439 670.6111584 454.4461744 663 473.5 663 C 492.5538256 663 508 670.6111584 508 680 C 508 689.3888416 492.5538256 697 473.5 697 C 454.4461744 697 439 689.3888416 439 680 Z" opacity="0.2"/></g><g transform="translate(-14,-14) scale(1,1)"><path fill="#ffffff" stroke="none" d="M 432 673 C 432 663.6111584 447.4461744 656 466.5 656 C 485.5538256 656 501 663.6111584 501 673 C 501 682.3888416 485.5538256 690 466.5 690 C 447.4461744 690 432 682.3888416 432 673 Z"/></g><g transform="translate(-14,-14) scale(1,1)"><path fill="none" stroke="#000000" d="M 432 673 C 432 663.6111584 447.4461744 656 466.5 656 C 485.5538256 656 501 663.6111584 501 673 C 501 682.3888416 485.5538256 690 466.5 690 C 447.4461744 690 432 682.3888416 432 673 Z" stroke-miterlimit="10"/></g><g transform="translate(-14,-14) scale(1,1)"><g><path fill="none" stroke="none"/><text fill="#000000" stroke="none" font-family="Arial" font-size="13px" font-style="normal" font-weight="bold" text-decoration="none" x="453.5" y="679">수정</text></g></g><g transform="translate(-14,-14) scale(1,1)"><path fill="#C0C0C0" stroke="none" d="M 439 736 C 439 726.6111584 454.4461744 719 473.5 719 C 492.5538256 719 508 726.6111584 508 736 C 508 745.3888416 492.5538256 753 473.5 753 C 454.4461744 753 439 745.3888416 439 736 Z" opacity="0.2"/></g><g transform="translate(-14,-14) scale(1,1)"><path fill="#ffffff" stroke="none" d="M 432 729 C 432 719.6111584 447.4461744 712 466.5 712 C 485.5538256 712 501 719.6111584 501 729 C 501 738.3888416 485.5538256 746 466.5 746 C 447.4461744 746 432 738.3888416 432 729 Z"/></g><g transform="translate(-14,-14) scale(1,1)"><path fill="none" stroke="#000000" d="M 432 729 C 432 719.6111584 447.4461744 712 466.5 712 C 485.5538256 712 501 719.6111584 501 729 C 501 738.3888416 485.5538256 746 466.5 746 C 447.4461744 746 432 738.3888416 432 729 Z" stroke-miterlimit="10"/></g><g transform="translate(-14,-14) scale(1,1)"><g><path fill="none" stroke="none"/><text fill="#000000" stroke="none" font-family="Arial" font-size="13px" font-style="normal" font-weight="bold" text-decoration="none" x="453.5" y="735">삭제</text></g></g><g transform="translate(-14,-14) scale(1,1)"><path fill="#C0C0C0" stroke="none" d="M 319 352 C 319 342.6111584 348.7730608 335 385.5 335 C 422.2269392 335 452 342.6111584 452 352 C 452 361.3888416 422.2269392 369 385.5 369 C 348.7730608 369 319 361.3888416 319 352 Z" opacity="0.2"/></g><g transform="translate(-14,-14) scale(1,1)"><path fill="#ffffff" stroke="none" d="M 312 345 C 312 335.6111584 341.7730608 328 378.5 328 C 415.2269392 328 445 335.6111584 445 345 C 445 354.3888416 415.2269392 362 378.5 362 C 341.7730608 362 312 354.3888416 312 345 Z"/></g><g transform="translate(-14,-14) scale(1,1)"><path fill="none" stroke="#000000" d="M 312 345 C 312 335.6111584 341.7730608 328 378.5 328 C 415.2269392 328 445 335.6111584 445 345 C 445 354.3888416 415.2269392 362 378.5 362 C 341.7730608 362 312 354.3888416 312 345 Z" stroke-miterlimit="10"/></g><g transform="translate(-14,-14) scale(1,1)"><g><path fill="none" stroke="none"/><text fill="#000000" stroke="none" font-family="Arial" font-size="13px" font-style="normal" font-weight="bold" text-decoration="none" x="335.88818359375" y="351">상품 목록 조회</text></g></g><g transform="translate(-14,-14) scale(1,1)"><path fill="#C0C0C0" stroke="none" d="M 543 384 C 543 374.6111584 565.6096176 367 593.5 367 C 621.3903824 367 644 374.6111584 644 384 C 644 393.3888416 621.3903824 401 593.5 401 C 565.6096176 401 543 393.3888416 543 384 Z" opacity="0.2"/></g><g transform="translate(-14,-14) scale(1,1)"><path fill="#ffffff" stroke="none" d="M 536 377 C 536 367.6111584 558.6096176 360 586.5 360 C 614.3903824 360 637 367.6111584 637 377 C 637 386.3888416 614.3903824 394 586.5 394 C 558.6096176 394 536 386.3888416 536 377 Z"/></g><g transform="translate(-14,-14) scale(1,1)"><path fill="none" stroke="#000000" d="M 536 377 C 536 367.6111584 558.6096176 360 586.5 360 C 614.3903824 360 637 367.6111584 637 377 C 637 386.3888416 614.3903824 394 586.5 394 C 558.6096176 394 536 386.3888416 536 377 Z" stroke-miterlimit="10"/></g><g transform="translate(-14,-14) scale(1,1)"><g><path fill="none" stroke="none"/><text fill="#000000" stroke="none" font-family="Arial" font-size="13px" font-style="normal" font-weight="bold" text-decoration="none" x="558.694091796875" y="383">상품 검색</text></g></g><g transform="translate(-14,-14) scale(1,1)"><path fill="#C0C0C0" stroke="none" d="M 535 440 C 535 430.6111584 564.7730607999999 423 601.5 423 C 638.2269392000001 423 668 430.6111584 668 440 C 668 449.3888416 638.2269392000001 457 601.5 457 C 564.7730607999999 457 535 449.3888416 535 440 Z" opacity="0.2"/></g><g transform="translate(-14,-14) scale(1,1)"><path fill="#ffffff" stroke="none" d="M 528 433 C 528 423.6111584 557.7730607999999 416 594.5 416 C 631.2269392000001 416 661 423.6111584 661 433 C 661 442.3888416 631.2269392000001 450 594.5 450 C 557.7730607999999 450 528 442.3888416 528 433 Z"/></g><g transform="translate(-14,-14) scale(1,1)"><path fill="none" stroke="#000000" d="M 528 433 C 528 423.6111584 557.7730607999999 416 594.5 416 C 631.2269392000001 416 661 423.6111584 661 433 C 661 442.3888416 631.2269392000001 450 594.5 450 C 557.7730607999999 450 528 442.3888416 528 433 Z" stroke-miterlimit="10"/></g><g transform="translate(-14,-14) scale(1,1)"><g><path fill="none" stroke="none"/><text fill="#000000" stroke="none" font-family="Arial" font-size="13px" font-style="normal" font-weight="bold" text-decoration="none" x="551.88818359375" y="439">상품 상세 조회</text></g></g><g transform="translate(-14,-14) scale(1,1)"><path fill="#C0C0C0" stroke="none" d="M 335 408 C 335 398.6111584 357.6096176 391 385.5 391 C 413.3903824 391 436 398.6111584 436 408 C 436 417.3888416 413.3903824 425 385.5 425 C 357.6096176 425 335 417.3888416 335 408 Z" opacity="0.2"/></g><g transform="translate(-14,-14) scale(1,1)"><path fill="#ffffff" stroke="none" d="M 328 401 C 328 391.6111584 350.6096176 384 378.5 384 C 406.3903824 384 429 391.6111584 429 401 C 429 410.3888416 406.3903824 418 378.5 418 C 350.6096176 418 328 410.3888416 328 401 Z"/></g><g transform="translate(-14,-14) scale(1,1)"><path fill="none" stroke="#000000" d="M 328 401 C 328 391.6111584 350.6096176 384 378.5 384 C 406.3903824 384 429 391.6111584 429 401 C 429 410.3888416 406.3903824 418 378.5 418 C 350.6096176 418 328 410.3888416 328 401 Z" stroke-miterlimit="10"/></g><g transform="translate(-14,-14) scale(1,1)"><g><path fill="none" stroke="none"/><text fill="#000000" stroke="none" font-family="Arial" font-size="13px" font-style="normal" font-weight="bold" text-decoration="none" x="350.694091796875" y="407">상품 구매</text></g></g><g transform="translate(-14,-14) scale(1,1)"><path fill="#C0C0C0" stroke="none" d="M 335 472 C 335 462.6111584 357.6096176 455 385.5 455 C 413.3903824 455 436 462.6111584 436 472 C 436 481.3888416 413.3903824 489 385.5 489 C 357.6096176 489 335 481.3888416 335 472 Z" opacity="0.2"/></g><g transform="translate(-14,-14) scale(1,1)"><path fill="#ffffff" stroke="none" d="M 328 465 C 328 455.6111584 350.6096176 448 378.5 448 C 406.3903824 448 429 455.6111584 429 465 C 429 474.3888416 406.3903824 482 378.5 482 C 350.6096176 482 328 474.3888416 328 465 Z"/></g><g transform="translate(-14,-14) scale(1,1)"><path fill="none" stroke="#000000" d="M 328 465 C 328 455.6111584 350.6096176 448 378.5 448 C 406.3903824 448 429 455.6111584 429 465 C 429 474.3888416 406.3903824 482 378.5 482 C 350.6096176 482 328 474.3888416 328 465 Z" stroke-miterlimit="10"/></g><g transform="translate(-14,-14) scale(1,1)"><g><path fill="none" stroke="none"/><text fill="#000000" stroke="none" font-family="Arial" font-size="13px" font-style="normal" font-weight="bold" text-decoration="none" x="365.5" y="471">결제</text></g></g><g transform="translate(-14,-14) scale(1,1)"><path fill="#C0C0C0" stroke="none" d="M 631 608 C 631 598.6111584 653.6096176 591 681.5 591 C 709.3903824 591 732 598.6111584 732 608 C 732 617.3888416 709.3903824 625 681.5 625 C 653.6096176 625 631 617.3888416 631 608 Z" opacity="0.2"/></g><g transform="translate(-14,-14) scale(1,1)"><path fill="#ffffff" stroke="none" d="M 624 601 C 624 591.6111584 646.6096176 584 674.5 584 C 702.3903824 584 725 591.6111584 725 601 C 725 610.3888416 702.3903824 618 674.5 618 C 646.6096176 618 624 610.3888416 624 601 Z"/></g><g transform="translate(-14,-14) scale(1,1)"><path fill="none" stroke="#000000" d="M 624 601 C 624 591.6111584 646.6096176 584 674.5 584 C 702.3903824 584 725 591.6111584 725 601 C 725 610.3888416 702.3903824 618 674.5 618 C 646.6096176 618 624 610.3888416 624 601 Z" stroke-miterlimit="10"/></g><g transform="translate(-14,-14) scale(1,1)"><g><path fill="none" stroke="none"/><text fill="#000000" stroke="none" font-family="Arial" font-size="13px" font-style="normal" font-weight="bold" text-decoration="none" x="648.5" y="607">문자전송</text></g></g><g transform="translate(-14,-14) scale(1,1)"><path fill="#C0C0C0" stroke="none" d="M 316 112 C 316 102.6111584 338.6096176 95 366.5 95 C 394.3903824 95 417 102.6111584 417 112 C 417 121.3888416 394.3903824 129 366.5 129 C 338.6096176 129 316 121.3888416 316 112 Z" opacity="0.2"/></g><g transform="translate(-14,-14) scale(1,1)"><path fill="#ffffff" stroke="none" d="M 309 105 C 309 95.6111584 331.6096176 88 359.5 88 C 387.3903824 88 410 95.6111584 410 105 C 410 114.3888416 387.3903824 122 359.5 122 C 331.6096176 122 309 114.3888416 309 105 Z"/></g><g transform="translate(-14,-14) scale(1,1)"><path fill="none" stroke="#000000" d="M 309 105 C 309 95.6111584 331.6096176 88 359.5 88 C 387.3903824 88 410 95.6111584 410 105 C 410 114.3888416 387.3903824 122 359.5 122 C 331.6096176 122 309 114.3888416 309 105 Z" stroke-miterlimit="10"/></g><g transform="translate(-14,-14) scale(1,1)"><g><path fill="none" stroke="none"/><text fill="#000000" stroke="none" font-family="Arial" font-size="13px" font-style="normal" font-weight="bold" text-decoration="none" x="331.694091796875" y="111">리뷰 조회</text></g></g><g transform="translate(-14,-14) scale(1,1)"><path fill="#C0C0C0" stroke="none" d="M 103 408 C 103 398.6111584 125.6096176 391 153.5 391 C 181.3903824 391 204 398.6111584 204 408 C 204 417.3888416 181.3903824 425 153.5 425 C 125.6096176 425 103 417.3888416 103 408 Z" opacity="0.2"/></g><g transform="translate(-14,-14) scale(1,1)"><path fill="#ffffff" stroke="none" d="M 96 401 C 96 391.6111584 118.6096176 384 146.5 384 C 174.3903824 384 197 391.6111584 197 401 C 197 410.3888416 174.3903824 418 146.5 418 C 118.6096176 418 96 410.3888416 96 401 Z"/></g><g transform="translate(-14,-14) scale(1,1)"><path fill="none" stroke="#000000" d="M 96 401 C 96 391.6111584 118.6096176 384 146.5 384 C 174.3903824 384 197 391.6111584 197 401 C 197 410.3888416 174.3903824 418 146.5 418 C 118.6096176 418 96 410.3888416 96 401 Z" stroke-miterlimit="10"/></g><g transform="translate(-14,-14) scale(1,1)"><g><path fill="none" stroke="none"/><text fill="#000000" stroke="none" font-family="Arial" font-size="13px" font-style="normal" font-weight="bold" text-decoration="none" x="116.88818359375" y="407">리뷰  등록</text></g></g><g transform="translate(-14,-14) scale(1,1)"><path fill="#C0C0C0" stroke="none" d="M 63 496 C 63 486.6111584 85.6096176 479 113.5 479 C 141.3903824 479 164 486.6111584 164 496 C 164 505.3888416 141.3903824 513 113.5 513 C 85.6096176 513 63 505.3888416 63 496 Z" opacity="0.2"/></g><g transform="translate(-14,-14) scale(1,1)"><path fill="#ffffff" stroke="none" d="M 56 489 C 56 479.6111584 78.6096176 472 106.5 472 C 134.3903824 472 157 479.6111584 157 489 C 157 498.3888416 134.3903824 506 106.5 506 C 78.6096176 506 56 498.3888416 56 489 Z"/></g><g transform="translate(-14,-14) scale(1,1)"><path fill="none" stroke="#000000" d="M 56 489 C 56 479.6111584 78.6096176 472 106.5 472 C 134.3903824 472 157 479.6111584 157 489 C 157 498.3888416 134.3903824 506 106.5 506 C 78.6096176 506 56 498.3888416 56 489 Z" stroke-miterlimit="10"/></g><g transform="translate(-14,-14) scale(1,1)"><g><path fill="none" stroke="none"/><text fill="#000000" stroke="none" font-family="Arial" font-size="13px" font-style="normal" font-weight="bold" text-decoration="none" x="78.694091796875" y="495">사진 등록</text></g></g><g transform="translate(-14,-14) scale(1,1)"><path fill="none" stroke="#000000" d="M 451 273 L 551 261" stroke-miterlimit="10" stroke-dasharray="3"/></g><g transform="translate(-14,-14) scale(1,1)"><path fill="none" stroke="#000000" d="M 541.4112594385293 266.39036681913274 L 551 261 L 540.4081715950539 258.0313014568373" stroke-miterlimit="10"/></g><g transform="translate(-14,-14) scale(1,1)"><g><path fill="none" stroke="none"/><text fill="#000000" stroke="none" font-family="Arial" font-size="13px" font-style="normal" font-weight="normal" text-decoration="none" x="466.5" y="259">«extend»</text></g></g><g transform="translate(-14,-14) scale(1,1)"><path fill="none" stroke="#000000" d="M 451 295 L 551 314" stroke-miterlimit="10" stroke-dasharray="3"/></g><g transform="translate(-14,-14) scale(1,1)"><path fill="none" stroke="#000000" d="M 540.2301884222363 316.23856172116535 L 551 314 L 541.8016910281212 307.9674953744026" stroke-miterlimit="10"/></g><g transform="translate(-14,-14) scale(1,1)"><g><path fill="none" stroke="none"/><text fill="#000000" stroke="none" font-family="Arial" font-size="13px" font-style="normal" font-weight="normal" text-decoration="none" x="466.5" y="322">«extend»</text></g></g><g transform="translate(-14,-14) scale(1,1)"><path fill="#C0C0C0" stroke="none" d="M 439 632 C 439 622.6111584 454.4461744 615 473.5 615 C 492.5538256 615 508 622.6111584 508 632 C 508 641.3888416 492.5538256 649 473.5 649 C 454.4461744 649 439 641.3888416 439 632 Z" opacity="0.2"/></g><g transform="translate(-14,-14) scale(1,1)"><path fill="#ffffff" stroke="none" d="M 432 625 C 432 615.6111584 447.4461744 608 466.5 608 C 485.5538256 608 501 615.6111584 501 625 C 501 634.3888416 485.5538256 642 466.5 642 C 447.4461744 642 432 634.3888416 432 625 Z"/></g><g transform="translate(-14,-14) scale(1,1)"><path fill="none" stroke="#000000" d="M 432 625 C 432 615.6111584 447.4461744 608 466.5 608 C 485.5538256 608 501 615.6111584 501 625 C 501 634.3888416 485.5538256 642 466.5 642 C 447.4461744 642 432 634.3888416 432 625 Z" stroke-miterlimit="10"/></g><g transform="translate(-14,-14) scale(1,1)"><g><path fill="none" stroke="none"/><text fill="#000000" stroke="none" font-family="Arial" font-size="13px" font-style="normal" font-weight="bold" text-decoration="none" x="453.5" y="631">등록</text></g></g><g transform="translate(-14,-14) scale(1,1)"><path fill="none" stroke="#000000" d="M 310 679 L 431 637" stroke-miterlimit="10" stroke-dasharray="3"/></g><g transform="translate(-14,-14) scale(1,1)"><path fill="none" stroke="#000000" d="M 422.77961094398444 644.3092546656783 L 431 637 L 420.0188836149792 636.3557306940203" stroke-miterlimit="10"/></g><g transform="translate(-14,-14) scale(1,1)"><g><path fill="none" stroke="none"/><text fill="#000000" stroke="none" font-family="Arial" font-size="13px" font-style="normal" font-weight="normal" text-decoration="none" x="337.5" y="652">«extend»</text></g></g><g transform="translate(-14,-14) scale(1,1)"><path fill="none" stroke="#000000" d="M 326 689 L 431 677" stroke-miterlimit="10" stroke-dasharray="3"/></g><g transform="translate(-14,-14) scale(1,1)"><path fill="none" stroke="#000000" d="M 421.3810268789928 682.3362305138872 L 431 677 L 420.42507409574046 673.971643660429" stroke-miterlimit="10"/></g><g transform="translate(-14,-14) scale(1,1)"><g><path fill="none" stroke="none"/><text fill="#000000" stroke="none" font-family="Arial" font-size="13px" font-style="normal" font-weight="normal" text-decoration="none" x="353.5" y="679">«extend»</text></g></g><g transform="translate(-14,-14) scale(1,1)"><path fill="none" stroke="#000000" d="M 326 707 L 431 724" stroke-miterlimit="10" stroke-dasharray="3"/></g><g transform="translate(-14,-14) scale(1,1)"><path fill="none" stroke="#000000" d="M 420.295180114843 726.5311719077034 L 431 724 L 421.6407404475389 718.2203580881109" stroke-miterlimit="10"/></g><g transform="translate(-14,-14) scale(1,1)"><g><path fill="none" stroke="none"/><text fill="#000000" stroke="none" font-family="Arial" font-size="13px" font-style="normal" font-weight="normal" text-decoration="none" x="362.5" y="736">«extend»</text></g></g><g transform="translate(-14,-14) scale(1,1)"><path fill="none" stroke="#000000" d="M 90 60 L 159 54" stroke-miterlimit="10"/></g><g transform="translate(-14,-14) scale(1,1)"><path fill="none" stroke="#000000" d="M 149.24019973048368 59.07408106943014 L 159 54 L 148.51086191391437 50.68669617888307" stroke-miterlimit="10"/></g><g transform="translate(-14,-14) scale(1,1)"><path fill="none" stroke="#000000" d="M 163 216 L 311 223" stroke-miterlimit="10"/></g><g transform="translate(-14,-14) scale(1,1)"><path fill="none" stroke="#000000" d="M 300.64979674236685 226.72468690304024 L 311 223 L 301.047549722932 218.31505245680498" stroke-miterlimit="10"/></g><g transform="translate(-14,-14) scale(1,1)"><path fill="none" stroke="#000000" d="M 163 222 L 312 263" stroke-miterlimit="10"/></g><g transform="translate(-14,-14) scale(1,1)"><path fill="none" stroke="#000000" d="M 301.08470052510336 264.3624380254972 L 312 263 L 303.3183285558431 256.2451068893941" stroke-miterlimit="10"/></g><g transform="translate(-14,-14) scale(1,1)"><path fill="none" stroke="#000000" d="M 91 593 L 191 569" stroke-miterlimit="10"/></g><g transform="translate(-14,-14) scale(1,1)"><path fill="none" stroke="#000000" d="M 182.10033160150837 575.464975049982 L 191 569 L 180.13555642707087 567.278411823159" stroke-miterlimit="10"/></g><g transform="translate(-14,-14) scale(1,1)"><path fill="none" stroke="#000000" d="M 91 599 L 207 600" stroke-miterlimit="10"/></g><g transform="translate(-14,-14) scale(1,1)"><path fill="none" stroke="#000000" d="M 196.80141514965814 604.1217553360647 L 207 600 L 196.87399034529372 595.7030326423401" stroke-miterlimit="10"/></g><g transform="translate(-14,-14) scale(1,1)"><path fill="none" stroke="#000000" d="M 91 606 L 207 636" stroke-miterlimit="10"/></g><g transform="translate(-14,-14) scale(1,1)"><path fill="none" stroke="#000000" d="M 196.10704678800045 637.5308724052607 L 207 636 L 198.21502865775616 629.3800091755385" stroke-miterlimit="10"/></g><g transform="translate(-14,-14) scale(1,1)"><path fill="none" stroke="#000000" d="M 91 612 L 223 679" stroke-miterlimit="10"/></g><g transform="translate(-14,-14) scale(1,1)"><path fill="none" stroke="#000000" d="M 212.03258556469936 678.1539381793514 L 223 679 L 215.84312293139934 670.646610830032" stroke-miterlimit="10"/></g><g transform="translate(-14,-14) scale(1,1)"><path fill="none" stroke="#000000" d="M 91 625 L 245 775" stroke-miterlimit="10"/></g><g transform="translate(-14,-14) scale(1,1)"><path fill="none" stroke="#000000" d="M 234.7828211636479 770.9245544260782 L 245 775 L 240.65713876189653 764.893588358543" stroke-miterlimit="10"/></g><g transform="translate(-14,-14) scale(1,1)"><path fill="none" stroke="#000000" d="M 91 631 L 257 831" stroke-miterlimit="10"/></g><g transform="translate(-14,-14) scale(1,1)"><path fill="none" stroke="#000000" d="M 247.2702653968669 825.8685026987638 L 257 831 L 253.74855522232377 820.4915221436346" stroke-miterlimit="10"/></g><g transform="translate(-14,-14) scale(1,1)"><path fill="none" stroke="#000000" d="M 446 355 L 535 369" stroke-miterlimit="10" stroke-dasharray="3"/></g><g transform="translate(-14,-14) scale(1,1)"><path fill="none" stroke="#000000" d="M 524.3066454186088 371.57917967513714 L 535 369 L 525.614901023678 363.2624119000541" stroke-miterlimit="10"/></g><g transform="translate(-14,-14) scale(1,1)"><g><path fill="none" stroke="none"/><text fill="#000000" stroke="none" font-family="Arial" font-size="13px" font-style="normal" font-weight="normal" text-decoration="none" x="475.5" y="390">«extend»</text></g></g><g transform="translate(-14,-14) scale(1,1)"><path fill="none" stroke="#000000" d="M 163 229 L 345 327" stroke-miterlimit="10"/></g><g transform="translate(-14,-14) scale(1,1)"><path fill="none" stroke="#000000" d="M 334.05632686676626 325.8882363772193 L 345 327 L 338.04779011314616 318.4755189196566" stroke-miterlimit="10"/></g><g transform="translate(-14,-14) scale(1,1)"><path fill="none" stroke="#000000" d="M 91 578 L 356 363" stroke-miterlimit="10"/></g><g transform="translate(-14,-14) scale(1,1)"><path fill="none" stroke="#000000" d="M 350.76022119971344 372.671851845643 L 356 363 L 345.4558848517141 366.1339489050856" stroke-miterlimit="10"/></g><g transform="translate(-14,-14) scale(1,1)"><path fill="none" stroke="#000000" d="M 422 363 L 550 415" stroke-miterlimit="10" stroke-dasharray="3"/></g><g transform="translate(-14,-14) scale(1,1)"><path fill="none" stroke="#000000" d="M 539.0002555481321 415.07497995466576 L 550 415 L 542.1689872723679 407.27502494116237" stroke-miterlimit="10"/></g><g transform="translate(-14,-14) scale(1,1)"><g><path fill="none" stroke="none"/><text fill="#000000" stroke="none" font-family="Arial" font-size="13px" font-style="normal" font-weight="normal" text-decoration="none" x="470.5" y="366">«extend»</text></g></g><g transform="translate(-14,-14) scale(1,1)"><path fill="none" stroke="#000000" d="M 430 409 L 527 423" stroke-miterlimit="10" stroke-dasharray="3"/></g><g transform="translate(-14,-14) scale(1,1)"><path fill="none" stroke="#000000" d="M 516.3402211779309 425.7146114758038 L 527 423 L 517.5428779261384 417.38191829179385" stroke-miterlimit="10"/></g><g transform="translate(-14,-14) scale(1,1)"><g><path fill="none" stroke="none"/><text fill="#000000" stroke="none" font-family="Arial" font-size="13px" font-style="normal" font-weight="normal" text-decoration="none" x="448.5" y="413">«include»</text></g></g><g transform="translate(-14,-14) scale(1,1)"><path fill="none" stroke="#000000" d="M 163 235 L 355 383" stroke-miterlimit="10"/></g><g transform="translate(-14,-14) scale(1,1)"><path fill="none" stroke="#000000" d="M 344.38111420367915 380.1295881053941 L 355 383 L 349.5210015602504 373.46162612930164" stroke-miterlimit="10"/></g><g transform="translate(-14,-14) scale(1,1)"><path fill="none" stroke="#000000" d="M 163 242 L 361 447" stroke-miterlimit="10"/></g><g transform="translate(-14,-14) scale(1,1)"><path fill="none" stroke="#000000" d="M 350.9119650195211 442.61462085645553 L 361 447 L 356.9676133869306 436.76575072598195" stroke-miterlimit="10"/></g><g transform="translate(-14,-14) scale(1,1)"><path fill="none" stroke="#000000" d="M 430 467 L 687 477" stroke-miterlimit="10"/></g><g transform="translate(-14,-14) scale(1,1)"><path fill="none" stroke="#000000" d="M 676.6813390907474 480.81119889796673 L 687 477 L 677.0086803131 472.3985294835059" stroke-miterlimit="10"/></g><g transform="translate(-14,-14) scale(1,1)"><path fill="none" stroke="#000000" d="M 708 520 L 682 583" stroke-miterlimit="10"/></g><g transform="translate(-14,-14) scale(1,1)"><path fill="none" stroke="#000000" d="M 681.9857665146633 572.000009208736 L 682 583 L 689.7681034874909 575.211767324506" stroke-miterlimit="10"/></g><g transform="translate(-14,-14) scale(1,1)"><path fill="none" stroke="#000000" d="M 163 202 L 323 123" stroke-miterlimit="10"/></g><g transform="translate(-14,-14) scale(1,1)"><path fill="none" stroke="#000000" d="M 315.7512178062158 131.2737631527061 L 323 123 L 312.02390292422103 123.72477098664075" stroke-miterlimit="10"/></g><g transform="translate(-14,-14) scale(1,1)"><path fill="#C0C0C0" stroke="none" d="M 316 160 C 316 150.6111584 338.6096176 143 366.5 143 C 394.3903824 143 417 150.6111584 417 160 C 417 169.3888416 394.3903824 177 366.5 177 C 338.6096176 177 316 169.3888416 316 160 Z" opacity="0.2"/></g><g transform="translate(-14,-14) scale(1,1)"><path fill="#ffffff" stroke="none" d="M 309 153 C 309 143.6111584 331.6096176 136 359.5 136 C 387.3903824 136 410 143.6111584 410 153 C 410 162.3888416 387.3903824 170 359.5 170 C 331.6096176 170 309 162.3888416 309 153 Z"/></g><g transform="translate(-14,-14) scale(1,1)"><path fill="none" stroke="#000000" d="M 309 153 C 309 143.6111584 331.6096176 136 359.5 136 C 387.3903824 136 410 143.6111584 410 153 C 410 162.3888416 387.3903824 170 359.5 170 C 331.6096176 170 309 162.3888416 309 153 Z" stroke-miterlimit="10"/></g><g transform="translate(-14,-14) scale(1,1)"><g><path fill="none" stroke="none"/><text fill="#000000" stroke="none" font-family="Arial" font-size="13px" font-style="normal" font-weight="bold" text-decoration="none" x="331.694091796875" y="159">리뷰 검색</text></g></g><g transform="translate(-14,-14) scale(1,1)"><path fill="none" stroke="#000000" d="M 163 208 L 308 167" stroke-miterlimit="10"/></g><g transform="translate(-14,-14) scale(1,1)"><path fill="none" stroke="#000000" d="M 299.36611643698535 173.81586785525548 L 308 167 L 297.0753760044947 165.71446876473982" stroke-miterlimit="10"/></g><g transform="translate(-14,-14) scale(1,1)"><path fill="none" stroke="#000000" d="M 83 377 L 99 383" stroke-miterlimit="10"/></g><g transform="translate(-14,-14) scale(1,1)"><path fill="none" stroke="#000000" d="M 88.0063306467394 383.37314092669993 L 99 383 L 90.96245137057895 375.49015232979445" stroke-miterlimit="10"/></g><g transform="translate(-14,-14) scale(1,1)"><path fill="none" stroke="#000000" d="M 138 419 L 114 471" stroke-miterlimit="10" stroke-dasharray="3"/></g><g transform="translate(-14,-14) scale(1,1)"><path fill="none" stroke="#000000" d="M 114.4366808531763 460.00867115256443 L 114 471 L 122.0808231547683 463.53673683022225" stroke-miterlimit="10"/></g><g transform="translate(-14,-14) scale(1,1)"><g><path fill="none" stroke="none"/><text fill="#000000" stroke="none" font-family="Arial" font-size="13px" font-style="normal" font-weight="normal" text-decoration="none" x="126.5" y="462">«extend»</text></g></g><g transform="translate(-14,-14) scale(1,1)"><path fill="none" stroke="#000000" d="M 78 327 L 115 256" stroke-miterlimit="10"/></g><g transform="translate(-14,-14) scale(1,1)"><path fill="#FFFFFF" stroke="none" d="M 113.07292471355586 277.91543704424754 L 115 256 L 98.14079785044406 270.13390614375265"/></g><g transform="translate(-14,-14) scale(1,1)"><path fill="none" stroke="#000000" d="M 113.07292471355586 277.91543704424754 L 115 256 L 98.14079785044406 270.13390614375265 L 113.07292471355586 277.91543704424754" stroke-miterlimit="10"/></g><g transform="translate(-14,-14) scale(1,1)"><path fill="none" stroke="#000000" d="M 78 104 L 116 175" stroke-miterlimit="10"/></g><g transform="translate(-14,-14) scale(1,1)"><path fill="#FFFFFF" stroke="none" d="M 98.98617463605402 161.05260789662998 L 116 175 L 113.83170424739076 153.10711317506946"/></g><g transform="translate(-14,-14) scale(1,1)"><path fill="none" stroke="#000000" d="M 98.98617463605402 161.05260789662998 L 116 175 L 113.83170424739076 153.10711317506946 L 98.98617463605402 161.05260789662998" stroke-miterlimit="10"/></g></g></svg>