<svg version="1.1" xmlns="http://www.w3.org/2000/svg" xmlns:xlink="http://www.w3.org/1999/xlink" width="564" height="510"><defs/><g><text fill="#eeeeee" stroke="none" font-family="Arial" font-size="24px" font-style="normal" font-weight="normal" text-decoration="none" x="0" y="0"></text><text fill="#eeeeee" stroke="none" font-family="Arial" font-size="24px" font-style="normal" font-weight="normal" text-decoration="none" x="0" y="30"></text><text fill="#eeeeee" stroke="none" font-family="Arial" font-size="24px" font-style="normal" font-weight="normal" text-decoration="none" x="0" y="60"></text><text fill="#eeeeee" stroke="none" font-family="Arial" font-size="24px" font-style="normal" font-weight="normal" text-decoration="none" x="0" y="90"></text><text fill="#eeeeee" stroke="none" font-family="Arial" font-size="24px" font-style="normal" font-weight="normal" text-decoration="none" x="0" y="120"></text><text fill="#eeeeee" stroke="none" font-family="Arial" font-size="24px" font-style="normal" font-weight="normal" text-decoration="none" x="0" y="150"></text><text fill="#eeeeee" stroke="none" font-family="Arial" font-size="24px" font-style="normal" font-weight="normal" text-decoration="none" x="0" y="180"></text><text fill="#eeeeee" stroke="none" font-family="Arial" font-size="24px" font-style="normal" font-weight="normal" text-decoration="none" x="0" y="210"></text><text fill="#eeeeee" stroke="none" font-family="Arial" font-size="24px" font-style="normal" font-weight="normal" text-decoration="none" x="0" y="240"></text><text fill="#eeeeee" stroke="none" font-family="Arial" font-size="24px" font-style="normal" font-weight="normal" text-decoration="none" x="0" y="270"></text><text fill="#eeeeee" stroke="none" font-family="Arial" font-size="24px" font-style="normal" font-weight="normal" text-decoration="none" x="0" y="300"></text><text fill="#eeeeee" stroke="none" font-family="Arial" font-size="24px" font-style="normal" font-weight="normal" text-decoration="none" x="0" y="330"></text><text fill="#eeeeee" stroke="none" font-family="Arial" font-size="24px" font-style="normal" font-weight="normal" text-decoration="none" x="0" y="360"></text><text fill="#eeeeee" stroke="none" font-family="Arial" font-size="24px" font-style="normal" font-weight="normal" text-decoration="none" x="0" y="390"></text><text fill="#eeeeee" stroke="none" font-family="Arial" font-size="24px" font-style="normal" font-weight="normal" text-decoration="none" x="0" y="420"></text><text fill="#eeeeee" stroke="none" font-family="Arial" font-size="24px" font-style="normal" font-weight="normal" text-decoration="none" x="0" y="450"></text><text fill="#eeeeee" stroke="none" font-family="Arial" font-size="24px" font-style="normal" font-weight="normal" text-decoration="none" x="0" y="480"></text><text fill="#eeeeee" stroke="none" font-family="Arial" font-size="24px" font-style="normal" font-weight="normal" text-decoration="none" x="200" y="0"></text><text fill="#eeeeee" stroke="none" font-family="Arial" font-size="24px" font-style="normal" font-weight="normal" text-decoration="none" x="200" y="30"></text><text fill="#eeeeee" stroke="none" font-family="Arial" font-size="24px" font-style="normal" font-weight="normal" text-decoration="none" x="200" y="60"></text><text fill="#eeeeee" stroke="none" font-family="Arial" font-size="24px" font-style="normal" font-weight="normal" text-decoration="none" x="200" y="90"></text><text fill="#eeeeee" stroke="none" font-family="Arial" font-size="24px" font-style="normal" font-weight="normal" text-decoration="none" x="200" y="120"></text><text fill="#eeeeee" stroke="none" font-family="Arial" font-size="24px" font-style="normal" font-weight="normal" text-decoration="none" x="200" y="150"></text><text fill="#eeeeee" stroke="none" font-family="Arial" font-size="24px" font-style="normal" font-weight="normal" text-decoration="none" x="200" y="180"></text><text fill="#eeeeee" stroke="none" font-family="Arial" font-size="24px" font-style="normal" font-weight="normal" text-decoration="none" x="200" y="210"></text><text fill="#eeeeee" stroke="none" font-family="Arial" font-size="24px" font-style="normal" font-weight="normal" text-decoration="none" x="200" y="240"></text><text fill="#eeeeee" stroke="none" font-family="Arial" font-size="24px" font-style="normal" font-weight="normal" text-decoration="none" x="200" y="270"></text><text fill="#eeeeee" stroke="none" font-family="Arial" font-size="24px" font-style="normal" font-weight="normal" text-decoration="none" x="200" y="300"></text><text fill="#eeeeee" stroke="none" font-family="Arial" font-size="24px" font-style="normal" font-weight="normal" text-decoration="none" x="200" y="330"></text><text fill="#eeeeee" stroke="none" font-family="Arial" font-size="24px" font-style="normal" font-weight="normal" text-decoration="none" x="200" y="360"></text><text fill="#eeeeee" stroke="none" font-family="Arial" font-size="24px" font-style="normal" font-weight="normal" text-decoration="none" x="200" y="390"></text><text fill="#eeeeee" stroke="none" font-family="Arial" font-size="24px" font-style="normal" font-weight="normal" text-decoration="none" x="200" y="420"></text><text fill="#eeeeee" stroke="none" font-family="Arial" font-size="24px" font-style="normal" font-weight="normal" text-decoration="none" x="200" y="450"></text><text fill="#eeeeee" stroke="none" font-family="Arial" font-size="24px" font-style="normal" font-weight="normal" text-decoration="none" x="200" y="480"></text><text fill="#eeeeee" stroke="none" font-family="Arial" font-size="24px" font-style="normal" font-weight="normal" text-decoration="none" x="400" y="0"></text><text fill="#eeeeee" stroke="none" font-family="Arial" font-size="24px" font-style="normal" font-weight="normal" text-decoration="none" x="400" y="30"></text><text fill="#eeeeee" stroke="none" font-family="Arial" font-size="24px" font-style="normal" font-weight="normal" text-decoration="none" x="400" y="60"></text><text fill="#eeeeee" stroke="none" font-family="Arial" font-size="24px" font-style="normal" font-weight="normal" text-decoration="none" x="400" y="90"></text><text fill="#eeeeee" stroke="none" font-family="Arial" font-size="24px" font-style="normal" font-weight="normal" text-decoration="none" x="400" y="120"></text><text fill="#eeeeee" stroke="none" font-family="Arial" font-size="24px" font-style="normal" font-weight="normal" text-decoration="none" x="400" y="150"></text><text fill="#eeeeee" stroke="none" font-family="Arial" font-size="24px" font-style="normal" font-weight="normal" text-decoration="none" x="400" y="180"></text><text fill="#eeeeee" stroke="none" font-family="Arial" font-size="24px" font-style="normal" font-weight="normal" text-decoration="none" x="400" y="210"></text><text fill="#eeeeee" stroke="none" font-family="Arial" font-size="24px" font-style="normal" font-weight="normal" text-decoration="none" x="400" y="240"></text><text fill="#eeeeee" stroke="none" font-family="Arial" font-size="24px" font-style="normal" font-weight="normal" text-decoration="none" x="400" y="270"></text><text fill="#eeeeee" stroke="none" font-family="Arial" font-size="24px" font-style="normal" font-weight="normal" text-decoration="none" x="400" y="300"></text><text fill="#eeeeee" stroke="none" font-family="Arial" font-size="24px" font-style="normal" font-weight="normal" text-decoration="none" x="400" y="330"></text><text fill="#eeeeee" stroke="none" font-family="Arial" font-size="24px" font-style="normal" font-weight="normal" text-decoration="none" x="400" y="360"></text><text fill="#eeeeee" stroke="none" font-family="Arial" font-size="24px" font-style="normal" font-weight="normal" text-decoration="none" x="400" y="390"></text><text fill="#eeeeee" stroke="none" font-family="Arial" font-size="24px" font-style="normal" font-weight="normal" text-decoration="none" x="400" y="420"></text><text fill="#eeeeee" stroke="none" font-family="Arial" font-size="24px" font-style="normal" font-weight="normal" text-decoration="none" x="400" y="450"></text><text fill="#eeeeee" stroke="none" font-family="Arial" font-size="24px" font-style="normal" font-weight="normal" text-decoration="none" x="400" y="480"></text><g transform="translate(-94,-134) scale(1,1)"><path fill="#ffffff" stroke="none" d="M 134.12663547585228 449.68 C 134.12663547585228 444.886167936 138.01247780079774 441 142.805908203125 441 C 147.59933860545226 441 151.48518093039772 444.886167936 151.48518093039772 449.68 C 151.48518093039772 454.473832064 147.59933860545226 458.36 142.805908203125 458.36 C 138.01247780079774 458.36 134.12663547585228 454.473832064 134.12663547585228 449.68 Z"/></g><g transform="translate(-94,-134) scale(1,1)"><path fill="none" stroke="#000000" d="M 134.12663547585228 449.68 C 134.12663547585228 444.886167936 138.01247780079774 441 142.805908203125 441 C 147.59933860545226 441 151.48518093039772 444.886167936 151.48518093039772 449.68 C 151.48518093039772 454.473832064 147.59933860545226 458.36 142.805908203125 458.36 C 138.01247780079774 458.36 134.12663547585228 454.473832064 134.12663547585228 449.68 Z" stroke-miterlimit="10"/></g><g transform="translate(-94,-134) scale(1,1)"><path fill="none" stroke="#000000" d="M 142.805908203125 458.36 L 142.805908203125 475.64" stroke-miterlimit="10"/></g><g transform="translate(-94,-134) scale(1,1)"><path fill="none" stroke="#000000" d="M 133.61609002130683 464.84 L 151.99572638494317 464.84" stroke-miterlimit="10"/></g><g transform="translate(-94,-134) scale(1,1)"><path fill="none" stroke="#000000" d="M 142.805908203125 475.64 L 130.04227183948865 493" stroke-miterlimit="10"/></g><g transform="translate(-94,-134) scale(1,1)"><path fill="none" stroke="#000000" d="M 142.805908203125 475.64 L 155.56954456676135 493" stroke-miterlimit="10"/></g><g transform="translate(-94,-134) scale(1,1)"><g><path fill="none" stroke="none"/><text fill="#000000" stroke="none" font-family="Arial" font-size="13px" font-style="normal" font-weight="bold" text-decoration="none" x="129.805908203125" y="512.5">회원</text></g></g><g transform="translate(-94,-134) scale(1,1)"><path fill="#C0C0C0" stroke="none" d="M 247 176 C 247 166.6111584 271.62433599999997 159 302 159 C 332.37566400000003 159 357 166.6111584 357 176 C 357 185.3888416 332.37566400000003 193 302 193 C 271.62433599999997 193 247 185.3888416 247 176 Z" opacity="0.2"/></g><g transform="translate(-94,-134) scale(1,1)"><path fill="#ffffff" stroke="none" d="M 240 169 C 240 159.6111584 264.62433599999997 152 295 152 C 325.37566400000003 152 350 159.6111584 350 169 C 350 178.3888416 325.37566400000003 186 295 186 C 264.62433599999997 186 240 178.3888416 240 169 Z"/></g><g transform="translate(-94,-134) scale(1,1)"><path fill="none" stroke="#000000" d="M 240 169 C 240 159.6111584 264.62433599999997 152 295 152 C 325.37566400000003 152 350 159.6111584 350 169 C 350 178.3888416 325.37566400000003 186 295 186 C 264.62433599999997 186 240 178.3888416 240 169 Z" stroke-miterlimit="10"/></g><g transform="translate(-94,-134) scale(1,1)"><g><path fill="none" stroke="none"/><text fill="#000000" stroke="none" font-family="Arial" font-size="13px" font-style="normal" font-weight="bold" text-decoration="none" x="267.194091796875" y="175">회원 가입</text></g></g><g transform="translate(-94,-134) scale(1,1)"><path fill="#C0C0C0" stroke="none" d="M 255 288 C 255 278.6111584 279.62433599999997 271 310 271 C 340.37566400000003 271 365 278.6111584 365 288 C 365 297.3888416 340.37566400000003 305 310 305 C 279.62433599999997 305 255 297.3888416 255 288 Z" opacity="0.2"/></g><g transform="translate(-94,-134) scale(1,1)"><path fill="#ffffff" stroke="none" d="M 248 281 C 248 271.6111584 272.62433599999997 264 303 264 C 333.37566400000003 264 358 271.6111584 358 281 C 358 290.3888416 333.37566400000003 298 303 298 C 272.62433599999997 298 248 290.3888416 248 281 Z"/></g><g transform="translate(-94,-134) scale(1,1)"><path fill="none" stroke="#000000" d="M 248 281 C 248 271.6111584 272.62433599999997 264 303 264 C 333.37566400000003 264 358 271.6111584 358 281 C 358 290.3888416 333.37566400000003 298 303 298 C 272.62433599999997 298 248 290.3888416 248 281 Z" stroke-miterlimit="10"/></g><g transform="translate(-94,-134) scale(1,1)"><g><path fill="none" stroke="none"/><text fill="#000000" stroke="none" font-family="Arial" font-size="13px" font-style="normal" font-weight="bold" text-decoration="none" x="268.694091796875" y="287">게시글 보기</text></g></g><g transform="translate(-94,-134) scale(1,1)"><path fill="#C0C0C0" stroke="none" d="M 263 432 C 263 422.6111584 287.62433599999997 415 318 415 C 348.37566400000003 415 373 422.6111584 373 432 C 373 441.3888416 348.37566400000003 449 318 449 C 287.62433599999997 449 263 441.3888416 263 432 Z" opacity="0.2"/></g><g transform="translate(-94,-134) scale(1,1)"><path fill="#ffffff" stroke="none" d="M 256 425 C 256 415.6111584 280.62433599999997 408 311 408 C 341.37566400000003 408 366 415.6111584 366 425 C 366 434.3888416 341.37566400000003 442 311 442 C 280.62433599999997 442 256 434.3888416 256 425 Z"/></g><g transform="translate(-94,-134) scale(1,1)"><path fill="none" stroke="#000000" d="M 256 425 C 256 415.6111584 280.62433599999997 408 311 408 C 341.37566400000003 408 366 415.6111584 366 425 C 366 434.3888416 341.37566400000003 442 311 442 C 280.62433599999997 442 256 434.3888416 256 425 Z" stroke-miterlimit="10"/></g><g transform="translate(-94,-134) scale(1,1)"><g><path fill="none" stroke="none"/><text fill="#000000" stroke="none" font-family="Arial" font-size="13px" font-style="normal" font-weight="bold" text-decoration="none" x="276.694091796875" y="431">게시글 작성</text></g></g><g transform="translate(-94,-134) scale(1,1)"><path fill="#C0C0C0" stroke="none" d="M 263 496 C 263 486.6111584 287.62433599999997 479 318 479 C 348.37566400000003 479 373 486.6111584 373 496 C 373 505.3888416 348.37566400000003 513 318 513 C 287.62433599999997 513 263 505.3888416 263 496 Z" opacity="0.2"/></g><g transform="translate(-94,-134) scale(1,1)"><path fill="#ffffff" stroke="none" d="M 256 489 C 256 479.6111584 280.62433599999997 472 311 472 C 341.37566400000003 472 366 479.6111584 366 489 C 366 498.3888416 341.37566400000003 506 311 506 C 280.62433599999997 506 256 498.3888416 256 489 Z"/></g><g transform="translate(-94,-134) scale(1,1)"><path fill="none" stroke="#000000" d="M 256 489 C 256 479.6111584 280.62433599999997 472 311 472 C 341.37566400000003 472 366 479.6111584 366 489 C 366 498.3888416 341.37566400000003 506 311 506 C 280.62433599999997 506 256 498.3888416 256 489 Z" stroke-miterlimit="10"/></g><g transform="translate(-94,-134) scale(1,1)"><g><path fill="none" stroke="none"/><text fill="#000000" stroke="none" font-family="Arial" font-size="13px" font-style="normal" font-weight="bold" text-decoration="none" x="276.694091796875" y="495">게시글 수정</text></g></g><g transform="translate(-94,-134) scale(1,1)"><path fill="#C0C0C0" stroke="none" d="M 263 560 C 263 550.6111584 287.62433599999997 543 318 543 C 348.37566400000003 543 373 550.6111584 373 560 C 373 569.3888416 348.37566400000003 577 318 577 C 287.62433599999997 577 263 569.3888416 263 560 Z" opacity="0.2"/></g><g transform="translate(-94,-134) scale(1,1)"><path fill="#ffffff" stroke="none" d="M 256 553 C 256 543.6111584 280.62433599999997 536 311 536 C 341.37566400000003 536 366 543.6111584 366 553 C 366 562.3888416 341.37566400000003 570 311 570 C 280.62433599999997 570 256 562.3888416 256 553 Z"/></g><g transform="translate(-94,-134) scale(1,1)"><path fill="none" stroke="#000000" d="M 256 553 C 256 543.6111584 280.62433599999997 536 311 536 C 341.37566400000003 536 366 543.6111584 366 553 C 366 562.3888416 341.37566400000003 570 311 570 C 280.62433599999997 570 256 562.3888416 256 553 Z" stroke-miterlimit="10"/></g><g transform="translate(-94,-134) scale(1,1)"><g><path fill="none" stroke="none"/><text fill="#000000" stroke="none" font-family="Arial" font-size="13px" font-style="normal" font-weight="bold" text-decoration="none" x="276.694091796875" y="559">게시글 삭제</text></g></g><g transform="translate(-94,-134) scale(1,1)"><path fill="#C0C0C0" stroke="none" d="M 271 624 C 271 614.6111584 293.6096176 607 321.5 607 C 349.3903824 607 372 614.6111584 372 624 C 372 633.3888416 349.3903824 641 321.5 641 C 293.6096176 641 271 633.3888416 271 624 Z" opacity="0.2"/></g><g transform="translate(-94,-134) scale(1,1)"><path fill="#ffffff" stroke="none" d="M 264 617 C 264 607.6111584 286.6096176 600 314.5 600 C 342.3903824 600 365 607.6111584 365 617 C 365 626.3888416 342.3903824 634 314.5 634 C 286.6096176 634 264 626.3888416 264 617 Z"/></g><g transform="translate(-94,-134) scale(1,1)"><path fill="none" stroke="#000000" d="M 264 617 C 264 607.6111584 286.6096176 600 314.5 600 C 342.3903824 600 365 607.6111584 365 617 C 365 626.3888416 342.3903824 634 314.5 634 C 286.6096176 634 264 626.3888416 264 617 Z" stroke-miterlimit="10"/></g><g transform="translate(-94,-134) scale(1,1)"><g><path fill="none" stroke="none"/><text fill="#000000" stroke="none" font-family="Arial" font-size="13px" font-style="normal" font-weight="bold" text-decoration="none" x="295" y="623">로그인</text></g></g><g transform="translate(-94,-134) scale(1,1)"><path fill="#C0C0C0" stroke="none" d="M 527 424 C 527 414.6111584 555.6537728 407 591 407 C 626.3462272 407 655 414.6111584 655 424 C 655 433.3888416 626.3462272 441 591 441 C 555.6537728 441 527 433.3888416 527 424 Z" opacity="0.2"/></g><g transform="translate(-94,-134) scale(1,1)"><path fill="#ffffff" stroke="none" d="M 520 417 C 520 407.6111584 548.6537728 400 584 400 C 619.3462272 400 648 407.6111584 648 417 C 648 426.3888416 619.3462272 434 584 434 C 548.6537728 434 520 426.3888416 520 417 Z"/></g><g transform="translate(-94,-134) scale(1,1)"><path fill="none" stroke="#000000" d="M 520 417 C 520 407.6111584 548.6537728 400 584 400 C 619.3462272 400 648 407.6111584 648 417 C 648 426.3888416 619.3462272 434 584 434 C 548.6537728 434 520 426.3888416 520 417 Z" stroke-miterlimit="10"/></g><g transform="translate(-94,-134) scale(1,1)"><g><path fill="none" stroke="none"/><text fill="#000000" stroke="none" font-family="Arial" font-size="13px" font-style="normal" font-weight="bold" text-decoration="none" x="543.194091796875" y="423">이미지 업로드</text></g></g><g transform="translate(-94,-134) scale(1,1)"><path fill="#C0C0C0" stroke="none" d="M 527 560 C 527 550.6111584 555.6537728 543 591 543 C 626.3462272 543 655 550.6111584 655 560 C 655 569.3888416 626.3462272 577 591 577 C 555.6537728 577 527 569.3888416 527 560 Z" opacity="0.2"/></g><g transform="translate(-94,-134) scale(1,1)"><path fill="#ffffff" stroke="none" d="M 520 553 C 520 543.6111584 548.6537728 536 584 536 C 619.3462272 536 648 543.6111584 648 553 C 648 562.3888416 619.3462272 570 584 570 C 548.6537728 570 520 562.3888416 520 553 Z"/></g><g transform="translate(-94,-134) scale(1,1)"><path fill="none" stroke="#000000" d="M 520 553 C 520 543.6111584 548.6537728 536 584 536 C 619.3462272 536 648 543.6111584 648 553 C 648 562.3888416 619.3462272 570 584 570 C 548.6537728 570 520 562.3888416 520 553 Z" stroke-miterlimit="10"/></g><g transform="translate(-94,-134) scale(1,1)"><g><path fill="none" stroke="none"/><text fill="#000000" stroke="none" font-family="Arial" font-size="13px" font-style="normal" font-weight="bold" text-decoration="none" x="543.194091796875" y="559">비밀번호 확인</text></g></g><g transform="translate(-94,-134) scale(1,1)"><path fill="none" stroke="#000000" d="M 175 439 L 288 299" stroke-miterlimit="10"/></g><g transform="translate(-94,-134) scale(1,1)"><path fill="none" stroke="#000000" d="M 284.89268104560625 309.55199359911035 L 288 299 L 278.3414074670707 304.26417992500666" stroke-miterlimit="10"/></g><g transform="translate(-94,-134) scale(1,1)"><path fill="none" stroke="#000000" d="M 183 466 L 255 443" stroke-miterlimit="10"/></g><g transform="translate(-94,-134) scale(1,1)"><path fill="none" stroke="#000000" d="M 246.60020102022204 450.102350111007 L 255 443 L 244.03832525494107 442.0825651066492" stroke-miterlimit="10"/></g><g transform="translate(-94,-134) scale(1,1)"><path fill="none" stroke="#000000" d="M 183 481 L 255 486" stroke-miterlimit="10"/></g><g transform="translate(-94,-134) scale(1,1)"><path fill="none" stroke="#000000" d="M 244.57011649017056 489.49535834663453 L 255 486 L 245.15336705363154 481.0965502327962" stroke-miterlimit="10"/></g><g transform="translate(-94,-134) scale(1,1)"><path fill="none" stroke="#000000" d="M 183 497 L 270 535" stroke-miterlimit="10"/></g><g transform="translate(-94,-134) scale(1,1)"><path fill="none" stroke="#000000" d="M 259.0020081220613 534.7898223304113 L 270 535 L 262.3718634190951 527.0746273082548" stroke-miterlimit="10"/></g><g transform="translate(-94,-134) scale(1,1)"><path fill="none" stroke="#000000" d="M 183 512 L 292 599" stroke-miterlimit="10"/></g><g transform="translate(-94,-134) scale(1,1)"><path fill="none" stroke="#000000" d="M 281.4311975930372 595.9503417105226 L 292 599 L 286.68316220580715 589.3702940922248" stroke-miterlimit="10"/></g><g transform="translate(-94,-134) scale(1,1)"><path fill="none" stroke="#000000" d="M 367 423 L 519 419" stroke-miterlimit="10" stroke-dasharray="3"/></g><g transform="translate(-94,-134) scale(1,1)"><path fill="none" stroke="#000000" d="M 508.9515806928197 423.4754071800324 L 519 419 L 508.7301038021151 415.0592853332588" stroke-miterlimit="10"/></g><g transform="translate(-94,-134) scale(1,1)"><g><path fill="none" stroke="none"/><text fill="#000000" stroke="none" font-family="Arial" font-size="13px" font-style="normal" font-weight="normal" text-decoration="none" x="415.5" y="396">«extend»</text></g></g><g transform="translate(-94,-134) scale(1,1)"><path fill="none" stroke="#000000" d="M 367 553 L 519 553" stroke-miterlimit="10" stroke-dasharray="3"/></g><g transform="translate(-94,-134) scale(1,1)"><path fill="none" stroke="#000000" d="M 508.83732514237585 557.209517756016 L 519 553 L 508.83732514237585 548.790482243984" stroke-miterlimit="10"/></g><g transform="translate(-94,-134) scale(1,1)"><g><path fill="none" stroke="none"/><text fill="#000000" stroke="none" font-family="Arial" font-size="13px" font-style="normal" font-weight="normal" text-decoration="none" x="415.5" y="528">«include»</text></g></g><g transform="translate(-94,-134) scale(1,1)"><path fill="#ffffff" stroke="none" d="M 134.12663547585228 153.68 C 134.12663547585228 148.886167936 138.01247780079774 145 142.805908203125 145 C 147.59933860545226 145 151.48518093039772 148.886167936 151.48518093039772 153.68 C 151.48518093039772 158.47383206400002 147.59933860545226 162.36 142.805908203125 162.36 C 138.01247780079774 162.36 134.12663547585228 158.47383206400002 134.12663547585228 153.68 Z"/></g><g transform="translate(-94,-134) scale(1,1)"><path fill="none" stroke="#000000" d="M 134.12663547585228 153.68 C 134.12663547585228 148.886167936 138.01247780079774 145 142.805908203125 145 C 147.59933860545226 145 151.48518093039772 148.886167936 151.48518093039772 153.68 C 151.48518093039772 158.47383206400002 147.59933860545226 162.36 142.805908203125 162.36 C 138.01247780079774 162.36 134.12663547585228 158.47383206400002 134.12663547585228 153.68 Z" stroke-miterlimit="10"/></g><g transform="translate(-94,-134) scale(1,1)"><path fill="none" stroke="#000000" d="M 142.805908203125 162.36 L 142.805908203125 179.64" stroke-miterlimit="10"/></g><g transform="translate(-94,-134) scale(1,1)"><path fill="none" stroke="#000000" d="M 133.61609002130683 168.84 L 151.99572638494317 168.84" stroke-miterlimit="10"/></g><g transform="translate(-94,-134) scale(1,1)"><path fill="none" stroke="#000000" d="M 142.805908203125 179.64 L 130.04227183948865 197" stroke-miterlimit="10"/></g><g transform="translate(-94,-134) scale(1,1)"><path fill="none" stroke="#000000" d="M 142.805908203125 179.64 L 155.56954456676135 197" stroke-miterlimit="10"/></g><g transform="translate(-94,-134) scale(1,1)"><g><path fill="none" stroke="none"/><text fill="#000000" stroke="none" font-family="Arial" font-size="13px" font-style="normal" font-weight="bold" text-decoration="none" x="108.5" y="216.5">일반 사용자</text></g></g><g transform="translate(-94,-134) scale(1,1)"><path fill="none" stroke="#000000" d="M 183 179 L 239 174" stroke-miterlimit="10"/></g><g transform="translate(-94,-134) scale(1,1)"><path fill="none" stroke="#000000" d="M 229.25195322693565 179.09662477627595 L 239 174 L 228.50323208297448 170.71094796391066" stroke-miterlimit="10"/></g><g transform="translate(-94,-134) scale(1,1)"><path fill="none" stroke="#000000" d="M 183 208 L 273 263" stroke-miterlimit="10"/></g><g transform="translate(-94,-134) scale(1,1)"><path fill="none" stroke="#000000" d="M 262.1333210890066 261.29257812905803 L 273 263 L 266.523427236349 254.1087680697704" stroke-miterlimit="10"/></g></g></svg>